<svg xmlns="http://www.w3.org/2000/svg" width="500" height="80" version="1.0" viewBox="0 0 375 60"><defs><clipPath id="a"><path d="M6 4.02h59V59H6Zm0 0"/></clipPath><clipPath id="b"><path d="M53.715 8.484c-5.621-3.539-7.13-3.703-13.735-4.433-15.144.18-27.421 8.926-32.171 23.308-1.625 4.922-2.059 10.422-.153 15.243 2.512 6.328 8.742 10.617 15.332 12.347 6.59 1.735 13.844 4.114 20.598 3.293 5.27-.64 10.531-4.496 14.473-8.047 2.617-2.355 4.246-5.629 5.34-8.976 3.816-11.653.69-26.196-9.684-32.735Zm0 0"/></clipPath><clipPath id="c"><path d="M0 1.953h43.746v40.102H0Zm0 0"/></clipPath><clipPath id="d"><path d="M3 8h40.746v30H3Zm0 0"/></clipPath><clipPath id="e"><path d="M37 17h6.746v11H37Zm0 0"/></clipPath><clipPath id="f"><path d="M24 6h45.406v54H24Zm0 0"/></clipPath></defs><g clip-path="url(#a)"><g clip-path="url(#b)"><path fill="#ffe5d2" d="M5.805 0h60v60h-60Zm0 0"/></g></g><g clip-path="url(#c)"><path fill="#231f20" d="m21.473 3.023.023.024h.024l.023.027h.023l.047-.027.024.027.258.235.117.144.23.238.281.211.118.098.023.047.137.117.117.047h.047l.07-.024v-.046l.117-.07.211-.071.047-.047.371-.262.282-.12.164-.071.23-.191.188-.047.488-.309.14-.07.188-.07h.187l.165.046.789.047.793-.047.398-.046.371-.075.398-.093.348-.118h.563l.187-.027.606-.094.16-.07h1.773l1.192.07.605.047 1.164.192.375.023.7.144.347.094.7.239.35.117.372.144.117.117.188.094.91.36.16.093.863.617.817.762.351.403.164.238.278.45.21.5.07.26.231.333.211.36.164.331.211.332.301.711.281.762v.238l.117.524.07 1.09v.238l.024.738v.734l-.047.786-.023.785-.07 1.543-.024.761.024.688-.118.285-.093.262-.141.57-.09.57-.023.309-.047.262-.047.215-.117.187-.117.145-.235.378-.07.168-.066.332v.094l-.118.332-.304.621-.77 1.473-.047.188-.07.168-.094.14-.347.406-.282.235-.23.285-.211.262-.094.144-.094.332v.192l-.187.355-.23.477-.141.117-.164.094-.211.046-.14-.023-.184.098-.211.047h-.559l-.21.023-.071.023-.324.192-.024.023v.094l.024.023.042.098.282.309.047.07.14.094.254.097.094.047.047.07.047.169v.046l-.047.118-.07.07-.094.047-.114.027-.234.094-.07.07-.535.094-.282.05-1.351.239-.07.094-.211.117-.325.145-.093.093-.07.117-1.54 1-1.074.641-1.07.594-.535.262v.07l.023.023h.043l.047.051.07.047.047.07.047.047.094.121.046.024.305.355.254.379.117.43.047.472-.07.192-.117.14-.278.262-.14.098-.305.261-.14.165-.208.097-.117.07-.094.07-.117.071-.258.215-.37.117-.677.262-.375.121-.347.094-.375.047h-.184l-.375-.047-.21-.07h-.231l-.352-.094-.14-.028h-.114l-.117-.023-.305-.238-.792-.805-.536-.477-.304-.238-.325-.164-.398.094-.21.047-.7.144-.207.024h-.258l-.21.047-.255.023-.234.047-.235.023-.441.098-.234.047-.211.094-.184.046-.187.094-.141.121-.14.14-.165.122-.16.117-.351.192-.325.238-.398.164-.371.168-.188.094-.164.12h-.117l-.371.188-.117.024-.117.047h-.094l-.14.12-.255.094-.468.07-.141.075-.113.07-.14-.047-.142.07-.07.048-.117.046-.047.215v.356l.094.36.047.401v.192l.14.094.117.117.118.144.254.215.14.094.164.07.188.024.16.047.398.074h.188l.582-.074.187-.047.747-.262.652-.379.07-.117.16-.121.117-.07.094-.07.094-.048.164-.191.441-.238.118-.047.117-.07.258-.047.07-.098 1.094.047.047.097v.047l.023.047v.094l-.023.098-.118.117-.23-.047h-.234l-.399.094-.371.214-.352.239-.652.593-.14.165-.184.12-.164.118-.164.097-.258.188-.254.145-.305.117-.582.168-.84.21-.628-.07-.375-.093-.184-.07-.188-.075-.164-.117-.14-.047-.14-.07-.208-.192-.094-.117-.117-.098-.094-.14-.093-.121-.254-.618-.07-.19-.047-.235-.024-.215.047-.453h-.258l-.258.097-.253.07-.258.048-.07.07-.188.05h-.207l-.188.094-.164.047-.164.024-.136.023-.188.024-.305.097-.164.07-.535.024-1.094.094-.539.047-.558.023-.559-.023-.281-.047-.559-.07-.258-.07h-.187l-.348-.048-.164-.074-.324-.117-1.191-.715-.325-.164-.164-.117-.375-.29-.3-.355-.141-.187-.094-.192-.07-.215-.07-.164-.094-.308-.024-.098v-.117l-.023-.094.023-.097.047-.118.024-.12.07-.188.21-.262.024-.238v-.239l-.023-.238.023-.238v-.258l.118-.312.046-.118.118-.191v-.164l-.118-.168-.164-.117-.093-.047-.188-.07h-.07l-.07-.028h-.231l-.117-.07-.535-.164-.117-.027h-.141l-.211-.047-.164-.047h-.09l-.094-.024-.14-.093-.024-.098-.164-.164-.117-.191-.277-.403-.094-.238L0 31.582v-.238l.023-.14.047-.122.047-.07.024-.07v-.094l.047-.192.019-.093.05-.098.067-.047.14-.332.188-.285.118-.117.23-.286.117-.12.164-.262.117-.094.118-.117.07-.098.113-.094.074-.144.09-.117.117-.094.094-.07.117-.075.164-.187.208-.168.093-.094.094-.023.094-.075.094-.046.093-.094.094-.074.07-.07.07-.095v-.093l.208-.121.093-.094.211-.285.094-.094.07-.023.372-.547.187-.262.418-.5.305-.547.093-.308.07-.118v-.832l.071-.144.09-.094h.117l.047.047.047.094.047.12.047.048-.094.332-.07.355-.09.336-.075.355-.16.665-.117.355-.14.309-.235.238-.652.808-.418.524-.535.477-.91.972-.606.688-.352.547-.187.378-.07.192.023.191.047.164.07.145.094.117.234.215.325.14.445-.046.23.023.633.145.207.07.235.023.324.192.164-.215.562-.926.325-.43.234-.187.207-.238.258-.215.351-.332.07-.14.255-.192.21-.192.747-.617.511-.379.258-.144.281-.262.63-.45.98-.593.676-.406.675-.356.676-.332 1.305-.734.187-.05.07-.048.325-.14h.094l.558-.286.563-.214 1.722-.547.586-.145.582-.21.559-.239 1.144-.309.559-.191.535-.188 1.68-.546.535-.168.91-.309.91-.285.91-.215.93-.262.91-.21 1.352-.43.887-.309.445-.191.3-.07.141-.047.118-.047.582-.192.304-.117.301-.168.305-.14.605-.31.863-.476.024-.047h.094l.023.024h.07l.02-.047.68-.355.3-.145.118-.094.21-.047.395-.12.54-.286.675-.45.7-.476.347-.238.258-.355.046-.094.024-.098v-.094l.07-.07.094-.168v-.07l.023-.098v-.094l.094-.164-.234-.906-.094-.473-.14-.453-.094-.21-.211-.407-.137-.168-.164-.164-.188-.144-.234-.118-.254-.093-.164-.024-.328-.144-.395-.285-.257-.239-.137-.094-.14-.117-.446-.191-.184-.024h-.164l-.21.024-.094-.047-.118-.023h-.113l-.094-.024-.093.024h-.235l-.07.023-2.121-.379-.07-.05-.07-.024h-.071l-.211-.07-.066-.024-.07-.047-.118-.047h-.375l-.465.141-.234.121-.188.117-.441.164-.348-.07-.656-.164-.3-.121-.329-.094-.3-.07-.329-.024h-.347l-.282-.027h-.304l-.278-.023-.328.023-.281.05-.3.071-.259.094-.277.144-.21.047-.235.047-.23.047-.259.024h-.488l-.258-.024-.234-.047-.14-.094-.048-.023v-.047l-.046-.05-.02-.048V9.56l.02-.145.046-.07v-.117l.07-.168.235-.141.305-.309-.047-.023-.094.07-.21.07-.095.047-.14.047-.09.051-.117.024-1.004.472-.488.192-.493.144-.488.117h-.465l-.492-.07-.234-.098-.23-.14-.071.023h-.07l-.14-.047-.095-.074-.093-.117-.254-.379-.094-.121-.07-.14-.118-.477-.046-.332-.024-.356.024-.332.046-.332.118-.668.023-.238.047-.211.14-.43.208-.402.187-.379.164-.29.188-.257.183-.285.211-.238.235-.262.37-.523.165-.31.117-.07.21-.097.048-.07.047-.047.023-.094h.137l.351.14.188.145.207.164.398.356.211.144.23.117"/></g><path fill="#82979d" d="m21.148 3.215.188.14.512.524.187.191.184.14.21.145.212.094v.07l-.399-.093-.16-.024h-.21l-.376-.023-.793.094-.371.074-.398.07-.395.07h-.07l-.07.047-.024.098v.07l-.047.047v.215l.07.117h.024l.047.047.21.047.489.145-.14.093-.325.168-.14.07-.258.239-.094.14-.047.168v.122l.094.14.07.07.094-.023.14.047.047.047.141.074.066.023h.07l-.3.118-.188.046-.187.075-.094.023-.137.094-.093.14-.024.098.024.07.023.122.207.164.211.144.235.117.277.047.258.047.28.024.278-.024.282-.047.07-.047h.07l.164.168.067.094.14.07h.117l.047-.023h.14l.142.07.023.024-.094.097-.094.047-.21.094-.118.07-.23.098-.094.07-.117.024-.281.093-.114.051-.257.094-.282.047-.16.07-.164.047-.328.05h-.348l-.164-.023h-.14l-.141-.097-.281-.094-.067-.047-.047-.047H18l-.07-.023-.14-.074-.212-.403-.137-.43-.093-.449V7.54l-.024-.215.024-.449.07-.477.094-.476.113-.426.188-.402.234-.43.254-.379.539-.762.629-.71.324-.36.164.027.188.07.328.24.347.233.328.192M37.305 3.57h.21l.329.192.699.308.676.285.347.192.305.21.305.31.535.453.207.261.398.5.164.309.325.617v.117l.023.121.14.38.024.237-.023.118-.211-.262-.184-.332-.094-.14-.234-.262-.14-.098-.094-.188-.094-.023-.277-.191-.07-.094-.118-.098-.277-.164-.422-.285-.211-.215-.047.024-.023-.024h-.047l-.047-.047h-.02l-.047-.023-.164-.047-.117-.024-.418-.214-.422-.145-.234-.023-.254-.07-.234-.024-.258-.094-1.023-.285-.07-.074-.048-.024h-.14l-.14.047-.024-.023-.207-.024-.141-.07-.117-.047-.281-.097-.118-.047-.136-.024h-.118l-.328-.07-.254-.094-.562-.144-.277-.024-.582-.047h-.305L32.2 4l-.259-.047h-.16l-.164.024-.281-.051-.117-.047h-.324l-.094.023h-.211l-.188-.047h-1.535l-.515-.023h-.489l-.511.023-.516.047-.512.098-.281-.047h-.23l-.235.024-.676.093-.234.047h-.887.094l.094-.07.093-.047.165-.145.093-.046.207-.07.141-.122.258-.164.16-.07.281-.098.328-.047.301-.023h.652l.352.023.535-.047.535-.093 1.075-.215 1.097-.192.559-.046h.582l.77.023 1.515.094 1.492.191.7.145.374.093.7.239.37.14"/><path fill="#546e75" d="M21.285 4.047v.07l-.137-.047-.14-.093-.117-.098-.282-.14-.136-.094-.118-.075-.14-.047h-.211l-.047-.023-.07-.07-.02-.024.02-.12.093-.095h.141l.094.024.07.047.07.023.118.098.113.07.164.07.14.07.118.075.21.21.067.169M19.957 3.715l.07.047.094.047h.117l.117.023h.07l.095.047.066.047.023.12-.043.024h-.046l-.047.047h-.094l-.07-.047h-.094l-.164-.047L19.887 4l-.114-.047-.164-.05-.164-.048-.117-.07-.117-.094-.113-.097V3.43l.02-.024.023-.023.047-.028h.046l.094.051.07.047.094.07.07.047.094.047.094.051.117.047h.09"/><path fill="#9bb5bd" d="m33.344 4.57.136-.023h.141l.094.023.258.094.254.07h.117l1.05.286.348.074.352.093.676.168.488.188.746.238.305.047.418.168.722.285.328.188.188.191.094.117.347.192.352.285.137.14.164.145.28.379.212.36.207.378.14.426.118.621v.258l-.047.476-.14.454-.048.234-.023.238-.278.5-.328.735-.324.476-.21.168-.141.211-.235.238-.113.168-.024.118-.328.285-.488.523-.352.309-.187.12.7-1.355.046-.5v-.238l-.047-.496-.07-.215-.207-.476-.07-.356-.024-.168-.094-.355-.07-.164-.047-.075-.14-.117-.067-.047-.305-.332-.164-.168-.347-.285-.211-.094-.188-.097-.234-.047-.16-.117-.54-.309-.183-.098-.21-.07-.423-.094-.043-.046-.047-.024h-.187l-.094-.05-.488-.094-.957-.215-.91-.235-.489-.12-.933-.165-.488-.05-.493-.024h-1.933l-.492.023h-.465l-.047.024h-.07l-.094-.07-.07-.024h-.043l-.07.024-.048.046-.234.024h-.188l-.816-.094-.183.047-.235.074-.351-.05h-.395l-.352.023-.347.027-.399.07-.699.094-.348.024-.234.097h-.117l-.117-.05-.117-.188-.02-.047h-.469v-.144l-.047-.094-.046-.05-.094-.048h-.16l-.188.145-.07.023-.094.024h-.07l-.211.047-.207.023h-.188l-.187-.023-.371-.094-.188-.07-.164-.122v-.07l.047-.047.14-.07.165-.074.113-.07.234-.048.258-.046.117-.047.141-.192-.023-.07-.047-.121-.047-.047-.281-.14-.141-.047-.137-.028-.281-.094.023-.117.07-.074.094-.07.114-.07.21-.122.258-.093.165-.094.066-.07.047-.075v-.07l-.047-.094-.207-.238h-.07l-.352-.117-.07-.051-.07-.023.14-.07.164-.048.352-.047h.136l.352-.046.14-.051.465.05h.211l.235.024h.207l.422.047h.21l.301-.145.118-.046.464-.094.653-.094.328-.027.305-.047.3-.07 1.192-.047.605-.047 1.817-.074 1.238.05.3.024h.329l.933.07.63.094.304.074.09-.027h.164l.328.097h.094"/><path fill="#546e75" d="m18.98 4.809-.023.023v.047l-.023.023v.024l-.024.023v.117h-.07l-.094-.023-.07-.023-.047-.047-.047-.07-.023-.071v-.074l.046-.094h.118l.047.024.023.046h.047l.047.047.047.028h.046M18.863 5.375v.191l-.07.024-.211-.07-.07-.047-.094-.047-.07-.051-.047-.047-.043-.023v-.188l.043-.023v-.028h.094l.093.028.07.023.141.094.07.023.07.07.024.071M18.723 6.137l-.094.047-.117.023H18.3l-.113-.023-.235-.047-.094-.047v-.168l.024-.047.047-.047.117.047h.254l.094-.023h.14l.094.046.023.024.047.074v.047l.024.094M18.418 6.777l-.043.098-.074.023h-.113L18 6.852l-.07-.024-.07.024-.024-.024-.047-.027v-.024l-.023-.047v-.164l.07-.074.094-.023.093.023.118.028.093.046.067.07.074.071.043.07M18.746 7.492l.024.024-.024.046v.047l-.047.024-.023.023-.047.028H18.3l-.113.02h-.141l-.117-.02-.14-.028-.095-.023-.117-.047v-.094l.024-.047.023-.05.023-.02v-.027l.047-.047.14.074.142.02h.117l.14.027h.23l.141.023.141.047M18.488 8.18v.215l-.023.023-.047.023h-.3l-.141-.046-.047-.047-.047-.098.023-.094.047-.047.07-.046h.141l.094.046h.16v.024h.023l.047.047"/><path fill="#6f878e" d="m31.453 8.324.164.094.188.047.746.094.16.05.492.164.324.047.164.051.164.024.305.093.813.145.375.094.746.238.347.164.375.191.329.192.207.047.164.093.14.07.301.216.094.12.117.141.305.45.14.335.137.356.117.332.094.406.14.379.047.164v.43l-.14.379-.07-.047-.047-.14v-.098l-.047-.192-.047-.094-.094-.07-.113-.57-.258-.739-.094-.093-.07-.145-.117-.117-.207-.191-.14-.07-.165-.071-.07-.094-.235-.215-.183-.093-.563-.192-.16-.12-.117-.188h-.07l-.094-.047-.07-.098-.07-.047h-.071l-.047-.094-.07-.07-.137-.098-.328-.093h-.188l-.187-.024-.512-.117h-.746l-.21-.027-.184-.047-.164-.07-.047.023h-.094l-.047-.023-.094-.07-.113-.024h-.117l-.14-.024h-.118l-.375-.074-.113-.047-.235-.047-.234-.07-.258-.047-.465-.023h-.254l-.234.023-.258.094-.14.094-.16.07-.188.098-.188.047-.187.023h-.207l-.164-.047-.188-.094h-.14l-.278-.097-.234-.117-.117-.024-.117-.047h-.118l-.16-.05-.164-.024h-.164l-.328.05h-.324l-.164-.05h-.512l-.559.05-.28.024-.259.094-.257.117-.23.145-.352.047-.184.046-.188.024h-.164l-.351-.047-.16-.07-.094.047v-.286l.07-.117.301-.261.117-.075.117-.093.024-.047.21-.07h.048l.117-.098.043-.07.328-.094.348-.07.375-.028h.699l.375.027h.347l.352-.027.582.05.605.024h1.282l.656-.023h1.305l.605.023"/><g clip-path="url(#d)"><path fill="#9bb5bd" d="m43.297 10.7.07.593.047.64.023.645v.617l-.023.664-.094 1.282-.093.644-.442 1.969-.117.406-.094.38-.113.405-.023.047-.051.117v.047l-.024.07v.051l-.23.594-.399.734-.23.5-.094.262-.863 1.473-.305.5-.3.473-.305.476-.582.973-.328.332-.63.738-.628.691-.606.735-.304.379-.188.191-.137.238-.187.188-.371.476-.375.43-.211.188h-.07l-.047.047v.074l-.047.07-.067.07-.093.047-.141.098-.07.07-.63.45-.558.382-1.144.735-.606.308-.582.336-.633.258-.629.262-.511-.188-.258-.12-.488-.165-.512-.145-.258-.023-.535-.117-1.121-.145-1.117-.023h-1.121l-.536.047-.117.05-.094.094-.023.14v.263l-.395.168-.164.117-.328.285-.207.309-.07.191v.547l.023.094.141.214.113.07.164.048.07.047.094.023.047.027.164.024.137.07.024.047.046.047v.168h-.16l-.14.047-.118.023-.328.094-.113.05-.164.024h-.14l-.024-.047h-.047l-.023.024-.07.046-.329.024-.465.094-.3.047-.141.046.187-.21.184-.239.21-.238.325-.426.164-.238.258-.5.07-.07.07-.098.048-.117.023-.094.094-.215.136-.191v-.164l.024-.145.023-.14.047-.145.024-.14v-.169l-.07-.285-.024-.238v-.238l-.024-.496-.046-.262-.067-.215-.117-.238-.14-.211-.329-.168-.207-.047h-.094l-.117-.024-.023.047-.07.047h-.047l-.047.024-.047.047v.074l.047.07.07.047h.328l.094.047.137.12.093.142.118.144.117.332.047.14.047.36v.356l-.024.402-.047.687-.117.215-.21.477-.024.117-.047.047-.184.262-.023.074-.047.07-.024.07-.257.262-.348.524-.211.285-.164.14-.188.192-.187.117-.207.168-.398.262-.208.164-.187.168-.164.168-.188.117h-.093l-.254.14-.094.075-.07.07h-.094l-.117.07h-.094l-.047-.023-.09.121-.14.094-.258.117-.164.074-.14.047-.278.14-.352.098-.07.024-.066.047-.094.023h-.094l.188-.145.183-.308.07-.117.094-.07.07-.122.024-.093v-.122l-.023-.093-.047-.047-.047-.117-.07-.024-.07-.074-.161-.047h-.164l-.094.047-.047.047-.047.027-.093-.05-.094.05-.07.07h-.047l-.024-.046-.09.07-.21.047h-.512l-.094-.14-.21-.313-.118-.14-.281-.192-.184-.07-.164-.024-.188-.145-.187-.046-.418-.047h-.234l-.184.047-.187.074-.188.093-.234.239-.094.164-.02.191v.192l.02.117.07.14.047.051.164.047h.117l.141-.023h.094l.136.023.118.047.422.094.187.097.184.118-.325.191-.28.14-.329.122-.3.07-.352.07-.301.047-.328.024h-1l-1.356-.094-.91-.07-.695-.047-.235-.024-.234-.05-.187-.07-.207-.118h-.118l-.07-.023-.164-.122-.188-.093-.09-.047-.097-.024-.7-.714-.652-.735-.277-.383-.164-.425-.07-.239-.047-.238-.024-.238v-.262l.211-.664.164-.45.114-.214.14-.215.164-.187.07.02.235.144.07.047.184.046h.234l.282-.093.113-.07.117-.094.094-.098.117-.094.07-.12.047-.212v-.121l-.023-.094v-.097l-.047-.118-.024-.093-.093-.168-.047-.047h-.07l-.047-.047-.043-.023-.075-.098v-.07l.657-.57.629-.618.675-.594.348-.261 1.027-.688.63-.43.628-.449.656-.383.653-.332.676-.355.628-.356.653-.332.676-.336.675-.28.7-.263.699-.19.281-.118.164-.024.117-.05.16-.024.399-.14.394-.047.563-.215.324-.168.188-.07h.164l.183-.024.188-.07.14-.098.536-.187h.187l.676-.285.676-.262 2.707-.856 1.375-.379 2.726-.832 1.352-.453.68-.238.652-.285h.21l.208-.024.187-.046.559-.192.187-.047.211-.07.16-.121.422-.235.465-.214.211-.094.488-.262.07-.047.305-.097.23-.188.352-.144.235-.047.094-.07.093-.098.043.023.258-.094.258-.117.207-.144.445-.309.489-.262.257-.117.63-.453.35-.187.302-.239.328-.215.582-.5.304-.285.254-.332.118-.14.117-.192.234-.332.16-.168.14-.164.235-.355.188-.383.23-.402.352-.762.14-.426.09-.43.024-.214v-.211l.05-.454V8.227l.09.312.141.309.328.593.23.618.047.14.024.145v.355"/></g><path fill="#546e75" d="m20.426 8.512-.024.097-.047.047-.07.047h-.07l-.094.024h-.14l-.047.023-.141.023-.16.024h-.164l-.14.023h-.165l-.16.028h-.14l-.118-.028h-.023v-.023l-.024-.024v-.046l.024-.024v-.047l.164-.047h.21l.208-.023h.21l.212-.027.207-.02.421-.098.07.07"/><g clip-path="url(#e)"><path fill="#82979d" d="M42.785 20.156v.14l-.047.216-.07.093-.094.215-.136.215-.141.164-.117.215-.047.215v.285l-.094.262-.117.308-.14.239-.466.828-.14.262-.117.308-.114.192-.093.093-.07.121-.048.094-.093.215-.024.117-.094.098-.187.14-.047.07-.371.262-.14.192-.118.402-.047.215-.14.402-.094.192-.137.168-.023.14-.117.118-.047.05-.047.047-.14.094-.071-.023h-.07l-.114.046-.07.024h-.14l-.071-.024-.117.024-.117.05h-.348l-.21.047-.142.047.747-.949.117-.05.258-.235.44-.5.188-.262.395-.57.352-.57.347-.594.352-.617.351-.57.512-.739.094-.164.183-.406.188-.403.094-.19.117-.188.023-.098.188-.356.043-.07.074-.191.113-.332.328-1.047.094-.356.094-.332.183-.71.024.187v.332l-.094.547-.16.738-.117.356-.14.761"/></g><path fill="#adc6cd" d="m2.867 28.258-.234.262-.559.52-.535.593-.258.285-.117.191-.094.168-.07.164-.09.168-.023.141v.383l.047.285.136.21.047.122.188.238.093.07.118.07.324.118.258.05h.257l.583.048.328.093.136.047.118.051.093.047.094.07.07.07-.07.286-.14.262-.141.12-.07-.05-.07-.094-.138-.094-.164-.074-.351-.094-.395-.047-.398-.144-.254-.047L1 32.582l-.3-.215-.188-.308-.117-.38-.024-.214v-.215l.047-.238.117-.403.235-.382.3-.38.328-.402.329-.355.347-.383.352-.355.37-.332.77-.641.188-.285.465-.477.093-.117.165-.238.28-.383.208-.285-.07.215-.094.168-.23.378-.258.332-.583.645-.582.594-.28.332"/><path fill="#82979d" d="m37.469 29.371-.094.074-.117.047-.137.047-.117.023-.14.024-.094.023-.141.024-.117.027-.094.024-.09.023h-.094l-.117.023h-.094l-.117.024-.07.047-.117.047.234-.38.14-.167.141-.14.137-.169.117-.164.14-.144.118-.188.094.094.094.117.093.098.278.355.093.117.07.094"/><path fill="#75684b" d="m5.688 31.25-.047-.047h.023v.024h.024v.023"/><path fill="#84846c" d="m5.688 31.25-.07-.07h-.231l-.07-.07v.023h.023v.023l.094.047.066.07.07.098.07.117.048.14v-.116l.023-.024v-.097l-.024-.047v-.094"/><path fill="#8d9078" d="M5.34 31.156v.024l.023.023v.168l.047.02.07.12.043.118v.238l-.066.121-.047.094-.07.047.14-.094.02-.023.14-.145v-.164l.024-.023v-.051h.024l-.047-.164-.094-.168-.09-.07-.117-.07M4.688 32.035l-.024.094.395.168.07-.05h.023l.07-.048h-.28l-.094-.023-.047-.047-.114-.094M5.223 32.2h.023v-.024h-.023Zm0 0"/><path fill="#959e85" d="M5.523 31.727v-.098l-.066-.164-.07-.074-.024-.02-.023.02v.027h-.024v.023h-.023v.024h-.07l.023.023.047.024.047.047.047.093v.075h.136v.117l-.023.093-.113.145-.047.047h-.024l-.023.023-.047.024-.094.023h-.187l-.07-.023-.094-.047-.114-.094.047-.12.024.023h.023l.02.027h.047l.07.07.07.024h.14l.118-.047.094-.098.023-.047.024-.07v-.07h.136"/><path fill="#9caa90" d="M5.387 31.727v-.075l-.024-.023-.023-.07-.047-.047-.047-.024-.023-.023-.047.094.023.023.024.07.023.051.024.07-.047.141-.07.023-.048.028-.046.023h-.164l-.047-.023.07.07.07.024h.14l.048-.024.07-.023.047-.047.047-.05.023-.048.024-.07v-.07"/><path fill="#82979d" d="m26.254 32.508-.024.12.047.095.118.07.07.023.094.051.066.024.07.047.399.093.21.07.184.098.399.14.183.099.164.117h-1.609l-.023.07v.074l-.02.07v.07l.043.118.047.074.07.047.094.07.117.047.07.051.348.094.188.094-.094.046-.137.024h-.164L27 34.48h-.14l-.141-.023-.137.023-.14.047v.075l-.024.046v.07l-.023.048.023.047v.074l.023.047.047.023.512.379h-.117l-.258-.047-.113-.07-.352-.145-.117-.047-.094-.023-.047-.047-.043-.023-.07-.07-.07-.051-.07-.024h-.07l-.071.047-.024.05-.023.071-.07.07-.07.047h-.165l-.113-.047-.07-.023-.07-.047h-.118l-.07-.023-.117.023-.07.164v.215h-.184l-.094-.023h-.07l-.188-.047-.094-.047-.07-.07-.234-.098-.442-.356-.257-.191-.16-.047-.094-.047-.07-.023-.118-.094-.07-.047-.047-.098-.023-.164.023-.144.047-.094.07-.098.164-.164.235-.144.23-.094.188-.168.093-.094.07-.093.047-.145v-.117l.114-.07h.258l.07-.024.047-.05.281-.047.582-.047h.3l.282.023h.305l.535.094"/><path fill="#adc6cd" d="m28.14 32.793.422.191.442.168.887.356.21.117.212.145.16.117.164.168.164.191.117.188.184.523.023.117v.145l-.023.117-.067.098-.07.117-.258.238-.258.14-.3.216-.118.093-.164.192-.582.332-.305.144-.628.235-.653.12-.328.024-.371-.07h-.352l-.675-.098-.207-.164-.211-.168-.352-.355-.16-.215-.375-.356-.164-.168h.094l.164.051.093.047h.165l.066-.047.07-.097-.023-.188.117-.047.492.094h.16l.047-.047.07-.023.047-.075.188.075.582.257.164.051h.305l.066-.05.094-.047.07-.07-.07-.216-.07-.093-.278-.262-.094-.047-.07-.094.258-.05h.16l.164-.024.281-.047.164-.07.114-.094.047.07.023.024h.047l.023-.047.047-.047.024-.074v-.117h-.047l-.047.023v.024l-.023.023h-.024v-.07l-.023-.047-.137-.094-.07-.027-.047-.047-.164-.047-.094-.047-.3-.07-.095-.024-.187-.097.258-.047h.277l.863.047.188.023h.14l.047-.023.184-.164-.277-.215-.258-.168-.305-.164-.3-.145-.329-.117-.3-.144-.305-.094-.305-.168.586.074.184.047.375.094.187.023.184.047"/><path fill="#231f20" d="m12.52 33.46.07.095.047.117.023.121.047.094v.238l-.047.121v.094l-.117.14-.14.145-.16.117-.141.07-.211.075h-.606l-.094-.075-.093-.117-.07-.117-.141-.238-.047-.145v-.308l.07-.164.07-.121.118-.118.07-.093.117-.098.117-.047.141-.07.09-.047h.14l.118.023.117.047.117.024.094.047.09.07.117.05.094.07"/><path fill="#84846c" d="m12.008 33.484.117.094.094.121.07.188.043.12v.118l-.023.121v.094l.023-.024v-.05h.023v-.07l.024-.024v-.262l-.024-.023v-.117l-.046-.145-.02-.023-.094-.094h-.093l-.024-.024h-.07"/><path fill="#8d9078" d="m12.332 34.125-.023-.168-.043-.117-.07-.14-.071-.122-.117-.094h-.164l-.047-.023h-.164l-.047-.023-.113.07h-.024l-.047.023-.093.094.07-.047.207-.047.21.047.188.145.141.164.047.238h.16l-.023.14v.075h-.043l-.07.117-.024.047-.117.074-.07.024h-.118.024l.093-.075.141-.187.047-.215h.16"/><path fill="#959e85" d="m12.172 34.125-.047-.238-.14-.164-.188-.145-.211-.047-.207.047-.094.07-.047.051-.023.047-.047.047v.047l-.047.117v.098l-.023.117.023.094v.12l.117.141.094.051h.07l.07.024h.184l.07.023h.07l.071-.023h.024l.093-.075.141-.187.047-.215h-.211v-.094l-.024-.074-.046-.07-.094-.07-.07-.047-.07-.024h-.137l-.07.024-.141.07-.047.047-.047.144v.164l.047.145.047.047.07.047.207.07.21-.07.048-.047.094-.121.023-.07v-.071h.21"/><path fill="#9caa90" d="M11.96 34.125v-.094l-.023-.074-.046-.07-.047-.047-.047-.024-.07-.046-.07-.024h-.137l-.07.024-.071.046-.07.024-.047.047-.024.07-.023.074v.164l.023.07.024.075.047.047.07.047.14.046.067.024.21-.07.095-.094.046-.074.024-.07v-.071"/><path fill="#a9c2a9" d="M11.773 34.125v-.047l-.023-.047-.047-.047-.023-.027-.047-.047h-.067l-.046.024-.028.023-.043.027-.023.024v.023l-.024.047v.07l.024.047v.024l.023.047.043.027h.028l.046.023h.067l.023-.023h.024l.023-.027.024-.047.023-.024.023-.047v-.023"/><path fill="#231f20" d="M12.078 33.957v.027l.024.047v.14l-.047.095-.024.027h-.047l-.046.047h-.047l-.371.047v-.38l.046.024.02.024h.047v-.024l.07-.047.07-.074.07-.023.071-.047h.047l.023.047.047.023.047.047"/><path fill="#5d7880" d="m30.266 34.387-.07.047h-.024l-.094-.047-.047-.047-.047-.024-.047-.05h-.07l-.047-.02h-.093l-.067-.027-.05-.024-.044-.023-.093-.094v-.07l.047-.074.066-.024h.074l.043.024.07.023.07.027.071.047h.07l.094.094.07.023.047.024.047.047.024.047v.12M30.055 34.887v.047l-.024.023v.094l-.023.047-.024.023-.023.027-.07-.097-.094-.094-.094-.07-.07-.024-.23-.097-.212-.07-.234-.094-.09-.047-.094-.075-.07-.093-.023-.07-.047-.122v-.164l.047-.074.047.121.14.188.067.074.187.094.164.093.235.075.183.07.188.094.164.12"/><path fill="#bfd6dd" d="m4.824 37.14.164.169.352.285.16.117.422.168.394.14.446.098 1.328.215.187-.074h.23l.235.047.188.027.234.047.23.023h.211l.258-.023 1.305-.047.91-.145.582-.214.211-.094.211-.117.184-.121.046.023h.024l.14-.07.024-.047.07-.047.211.332-.164.047-.492.215-.16.047-.164.07-.352.047-.047.074-.07.047-.137.023h-.07l-.117.07-.047.094h-.258l-1.117.121-.211.047-.234.024-.676-.047-.348.023H8.79l-.348.024H8.09l-.348-.024-.562-.093-.953-.192-.235-.07-.21-.074-.235-.117-.348-.168-.351-.211-.348-.215-.305-.285-.164-.141-.254-.336-.117-.164-.21-.355-.118-.383-.066-.117v-.333l.02-.261.046-.145v-.117l.07.332.164.285.188.285.187.262.883 1.02"/><path fill="#5d7880" d="m28.82 35.41.067.07.07.07.07.048.094.07.047.074.047.188v.097l-.047.07-.094-.12-.117-.118-.09-.117-.117-.097-.234-.141-.282-.047-.023-.047-.023-.05-.024-.047-.023-.024v-.14l.023-.051.117-.024.094.047.07.05.188.188.094.051h.093M28.445 35.836l.094.094.023.074.047.047.024.047v.117l-.047.07h-.094l-.047-.047-.047-.093v-.047h-.023l-.094-.094-.117-.074-.137-.024-.117-.047-.14-.023-.094-.07-.047-.024-.024-.074v-.117h.118l.234.047.07.023.114.047.117.05.094.048.093.07M26.3 36.574h-.093l-.094-.05-.093-.024-.07-.047-.09-.023-.07-.047-.071-.024-.094-.023-.023-.05-.024-.048v-.21h.094l.117.023.07.047.09.07.188.145.093.07.07.094v.097"/><path fill="#adc6cd" d="m14.41 37.355.047.356v.36l-.117 1.28v.31l.07.308.047.215.094.168.113.187.14.121.305.285.325.188.07.074h.047l.023.023h.094l.094-.05.164.027.117.047.582.094.254-.047h.187l.446-.121.3-.094.188-.023h.188l.07-.07.23-.145.094-.094.211-.117.117-.098.117-.07.114-.047.07-.047.047-.047.047-.027.117-.14v.07l-.094.12-.676.57-.304.142-.207.144-.235.117-.488.192-.258.07-.258.047-.277.07-.234.047-.118-.023h-.093l-.094-.024h-.113l-.164-.047h-.094l-.117-.023-.282-.117-.3-.168-.258-.215-.254-.211-.094-.121-.281-.403-.14-.453-.024-.164-.07-.261v-.098l.023-.14.07-.192.047-.164.07-.145.024-.187v-.832l-.117-.262-.164-.215-.16-.144-.211-.164-.418-.239-.47-.164-.558-.027-.023-.094v-.07l.094-.168.07-.07.117-.094.207-.024h.234l.094.024.442.117.582.355.21.075.352.757"/><path fill="#5d7880" d="M27.535 36.406v.07l.024.024v.047l.023.05h-.023l-.024.071h-.047l-.023.047h-.047l-.066-.047-.094-.07-.07-.075-.094-.07-.07-.07-.07-.024.046-.097.023-.047h.188l.094.023.09.047.093.05.047.071"/><path fill="#adc6cd" d="m4.172 37.832.07.07.094.047.07.07.07.051.188.14.137.122.07.047h.07l.211.14.164.047h.07l.489.192.488.117.516.098.535.07.535.047 1.028.047h.488l.258-.024h.234l.207-.023h.211l.398-.047.442-.094h.328l.3-.023.329-.098.629-.234.347-.145.305-.117.328-.074.02.191v.07l-.09.122-.14.093-.305.07-.164.024-.184.047-.258.098-.023.023h-.211l-.207.117-.14.075-.188.046-.348.047-.164.047-.188.047-.14.098-.348.023-.723.047H9.63l-.348.023H8.56l-.817.047h-.445l-.442-.023-.652-.117-.422-.145-.394-.191-.211-.117-.352-.262-.113-.024-.117-.047-.352-.285-.234-.07-.024-.074-.113-.094-.094-.047H3.73l-.046-.023-.188-.145-.164-.187-.113-.192-.094-.215-.07-.214-.047-.235-.047-.476.094-.094.093.21.118.192.113.215.492.547.3.332M15.879 37l-.047.309-.07.168-.235.285-.093.093-.301.239-.047-.024h-.117l-.211.117-.024-.07v-.12l.024-.048.07-.047.352-.093.113-.098.14-.094.047-.047.047-.14v-.075l-.047-.07-.07-.023h-.16l-.352.14-.07.028v-.028l-.047-.047v-.046l-.023-.024v-.094l.234-.144.164-.07.278-.047h.164l.14.023.14.047"/><path fill="#9bb5bd" d="M6.457 33.887h.188v.406l.445.426h.137l.164-.024.164-.047.465-.214.605-.286.258-.164.281-.097h.254v-.164l.047-.051.047-.07.234-.141.164-.07.113-.051.141-.047.094-.07v-.215l.445-.332.93-.594.469-.285.488-.238.492-.239 1-.402 1.027-.379.536-.144.511-.168 1.074-.309 1.07-.258 1.098-.262 3.196-.808.511-.168.536-.164.492-.192.512-.191.488-.21.933-.454.47-.238v-.239l.859-.308 1.425-.594 1.047-.473.746-.476.07-.07.094-.145v-.07l.258-.024.3-.07.517-.215.535-.309.511-.378.512-.336.516-.309.535-.234.258-.051.277-.024.094-.07.21-.191.7-.594.395-.309.398-.285.305-.187.23-.075.047-.093.07-.047.07-.07.536-.383.164-.164.117-.168.047-.07.023-.07.188-.071.09-.074.117-.094.258-.145.164-.07.23-.191.07-.211.07-.121.188-.165.118-.097.093-.047.094-.023.094-.165.113-.168.07-.14.118-.168.093-.168.07-.14.07-.192.024-.164.047-.024.07-.05.067-.118.07-.14.047-.168.047-.192.07-.64v-.453l-.047-.403-.046-.164-.07-.12-.071-.095h-.277l-.094.047h-.094l-.094.07-.183.145-.399.332-.187.117-.188.098-.183.047-.188.426h-.093l-.118.023-.117.047-.09.027-.234.094-.117.023h-.094l-.07.141-.325.285-.257.145-.582.355-.7.285-.722.286-.676.238-.54.168-.183.023h-.164l-.094.188-.14.168-.14.164-.208.144-.21.141-.235.145-.277.14-.258.121-.63.215-1.398.402-.726.192-1.492.355-1.375.38-.606.19-.535.239-.445.234-.184.121-.164.141h-.21l-.278.047-.305.05-.352.047-.816.211-1.957.547-2.262.739-1.14.378-2.239.81-1.003.382-1.727.71-.652.286-.258.14-.883.5-.445.31-.465.331-.492.383-1 .902-.887 1.02-.211.285-.348.547-.304.547-.141.262-.184.546-.07.286-.047.261-.023.285v.262l.023.262.07.234.09.262.141.262"/><path fill="#92abb3" d="M6.95 33.363h.183v.43l.047.047.117.07.047.074.093.094.07.047.048.047h.117l.16-.024.305-.093.582-.262.258-.168.394-.188.234-.046.118-.028v-.07l.047-.094.14-.144.254-.117.258-.094.07-.074v-.188l.418-.336.422-.258.441-.285.446-.238.906-.453.469-.188.465-.215.98-.332.98-.308 1-.262 1.004-.262 1.004-.215 1-.261 1.004-.239 1.469-.425.957-.309.465-.191 1.351-.617.422-.215v-.211l.278-.145 1.144-.426.7-.285.675-.312.817-.45.3-.261.024-.07v-.047l.258-.024.257-.074.23-.094.259-.117.488-.262.492-.36.465-.331.488-.285.258-.094.234-.094.258-.074.278-.023.257-.262 1.024-.832.516-.356.14-.07.23-.07.024-.098.629-.473.234-.214.047-.07.047-.145.188-.07.187-.141.324-.192h.094l.07-.12h.047l.047-.048.094-.21.066-.122.188-.164.187-.12.07-.024.188-.309.184-.285.093-.168.07-.14.048-.141.023-.168.14-.07.118-.215.094-.332.07-.38.023-.429v-.355l-.023-.192-.094-.261-.07-.094h-.07l-.047.023h-.188l-.094.024-.16.093-.164.121-.187.141-.188.145-.23.164-.094.05-.094.024h-.07v.047l-.047.023-.07.117-.024.024-.093.144-.188.047-.113.047-.07.024-.235.093-.094.028h-.093l-.07.14-.301.239-.258.168-.559.28-.629.29-.656.258-.883.308-.422.074h-.16l-.07.165-.14.168-.165.14-.187.145-.184.117-.492.262-.258.093-.582.215-.629.192-.676.191-2.074.52-1.285.335-.559.188-.511.191-.422.239-.16.093-.141.118-.469.046-.3.051-.329.07-.77.192-1.816.523-1.004.309-2.168.734-1.05.356-1 .406-.934.332-.887.332-1.328.594-.445.238-.23.14-.376.216-.44.285-.446.308-.442.356-.464.406-.446.426-.441.476-.399.473-.535.762-.14.285-.137.238-.117.262-.188.523-.07.239-.047.258-.023.238.046.5.047.238.211.45"/><path fill="#8aa3ab" d="M7.46 32.89h.188v.38l.301.308.07.047h.141l.117-.023.282-.094.254-.117.535-.262.351-.168.117-.047.094-.023H10l.05-.145.044-.07.234-.14.117-.052.117-.047.188-.117v-.191l.371-.262.422-.285.789-.473.445-.214.418-.192.422-.215 1.328-.472.934-.262.906-.262 3.735-.902.93-.262.863-.262.863-.332.863-.355.793-.43v-.187l.723-.285.605-.239.652-.261.63-.286.745-.43.165-.116.07-.07.047-.071.047-.121h.21l.465-.117.235-.121.887-.57.464-.333.465-.262.445-.187.254-.05.211-.024.535-.473.329-.262.675-.5.305-.168.09-.07h.074l.067-.094.562-.43.16-.14.14-.191v-.07l.165-.071.094-.047.093-.074.118-.07.093-.07.09-.048h.094l.094-.097.07-.094.07-.168.14-.187.161-.122.094-.046.094-.024.07-.14.351-.57.094-.263.024-.144.066-.023.07-.047.07-.094.071-.121.094-.262.07-.355.047-.356v-.476l-.117-.262-.024-.07h-.258l-.023.046h-.16l-.14.07-.305.239-.164.145-.301.164-.14.023-.212.238-.023.047-.043.028-.258.07-.234.07-.07.047-.165.047-.07.098-.137.14-.14.121-.235.117-.512.286-.582.261-.605.239-1.05.332-.282.023-.117.14-.14.145-.302.239-.21.117-.442.238-.816.309-.582.168-3.73.949-.54.191-.465.164-.21.098-.165.117-.183.094-.141.12h-.211l-.488.095-.305.023-1.492.406-1.84.567-.98.308-1.957.692-.934.355-.887.332-1.469.617-.558.239-.422.215-.207.168-.375.164-.375.261-.395.285-.441.356-.422.355-.418.407-.398.425-.371.454-.328.476-.301.473-.117.238-.211.477-.164.472-.047.477v.238l.023.211.14.43.118.215"/><path fill="#849ca3" d="M7.973 32.39h.164v.333l.21.238.024.047.047.023.047.047h.137l.257-.047.118-.047.257-.117.465-.238.211-.121.207-.07.211-.047.024-.118.14-.144.094-.047.14-.047.254-.144v-.188l.723-.5.399-.238.746-.402.816-.356.395-.168.84-.262.816-.261 1.726-.45 1.723-.406 1.68-.45.84-.26.793-.31.394-.144.375-.164.746-.383v-.187l.235-.098.441-.164.535-.215 1.192-.5.675-.402.258-.215.043-.117.211-.028.211-.046.234-.07.184-.071.422-.262.418-.308.816-.524.445-.168.208-.047h.234l.234-.234 1.164-.93.141-.093.234-.122h.067l.027-.093.113-.07.141-.094.14-.098.141-.14.254-.215.024-.07v-.071l.164-.05.164-.142.117-.046.094-.047.14-.047.047-.027v-.024l.09-.117.023-.024.024-.07.047-.074.047-.07.164-.168.093-.07.141-.048.07-.14.09-.121.07-.14.165-.24.07-.144.047-.14v-.094l.047-.027.07-.047.07-.07.07-.094.118-.239.113-.617v-.523l-.047-.117-.047-.075h-.09l-.023.024h-.21l-.118.023-.14.074-.278.188-.14.121-.118.094-.14.07-.141.023-.07.051h-.047l-.16.164h-.07l-.095.047-.093.024-.188.097-.094.047-.136.047-.07.094-.258.215-.211.117-.465.262-.535.214-.563.239-.93.261-.304.047-.117.121-.118.141-.14.117-.559.285-.465.215-1.074.332-.535.168-.605.14-1.168.286-1.094.285-.492.168-.465.192-.188.07-.347.164-.118.098-.375.046-.535.094-.652.145-.746.21-1.68.524-.887.309-.93.308-1.75.645-1.515.594-.652.285-.864.402-.21.168-.325.14-.351.239-.395.262-.375.332-.793.715-.699.804-.324.406-.375.665-.188.453-.093.21-.067.454v.617l.043.215.07.187.118.192"/><path fill="#7b939a" d="M8.465 31.914h.16v.285l.094.098.023.047.047.023.07.094.024.047.047.027.234-.027.254-.07.21-.094.235-.117.395-.215.187-.075.188-.023.023-.117.047-.07.09-.075.187-.07.118-.023.07-.047.094-.07v-.145l.324-.262.328-.21.7-.407.698-.355.723-.286.77-.285.77-.215.792-.21.793-.192 1.563-.379 1.539-.406.746-.238 1.094-.403.351-.168.7-.355v-.164l.21-.098.371-.117.516-.215 1.07-.453.47-.258.323-.238.094-.07.023-.098.188-.024.207-.046.21-.07.165-.098.395-.211.746-.5.398-.239.371-.168.211-.047.188-.023.07-.047.676-.57.699-.524.117-.046.07-.047h.07l.048-.07.207-.169.28-.214.118-.118.07-.047.07-.167.137-.047.235-.141.094-.074.14-.047.024-.023h.023l.094-.094v-.024l.117-.238.066-.07.07-.075.094-.046.07-.047h.048l.14-.262.094-.094.207-.355.047-.262h.047l.07-.05.117-.118.117-.215.094-.234.07-.262.024-.262v-.097l-.047-.188-.047-.074h-.234l-.047.027h-.047l-.254.07-.117.095-.234.167-.118.07-.117.048-.113.023-.328.192h-.07l-.07.023-.188.094-.07.074-.067.023-.094.047h-.07l-.047.07-.117.118-.305.215-.441.214-1.004.403-.465.144-.375.07-.277.047-.07.122-.47.308-.37.164-.418.168-.47.164-.487.145-.536.14-.539.168-1.093.262-1.004.262-.442.14-.398.145-.348.164-.305.168h-.347l-.469.094-2.027.547-.77.285-.816.238-2.403.902-1.421.547-1.028.453-.324.188-.188.121-.304.14-.676.454-.371.308-.7.641-.35.355-.302.407-.304.379-.235.402-.207.383-.21.617-.024.379v.215l.023.191.024.188.07.168.094.187"/><path fill="#758e94" d="M8.977 31.418h.14v.285l.047.024.024.046.046.024.047.047.02.047.047.023.023.05.047.024.187-.023.418-.145.399-.238.164-.07.187-.047.184-.024v-.12l.07-.071.235-.14.093-.028.165-.07v-.14l.277-.24.305-.214.628-.355.63-.31.675-.284 1.399-.43 1.421-.355 1.403-.356 1.422-.355.699-.215.652-.238.653-.286.605-.308v-.14l1.98-.81.399-.238.187-.093.211-.215.02-.07h.187l.165-.047.375-.145.347-.215.328-.21.348-.263.352-.214.347-.118.164-.05h.211l.395-.38.258-.19.257-.212.465-.308.164-.051.024-.07.187-.14.113-.099.141-.093.211-.192.023-.117.118-.047.16-.097.07-.07.07-.048h.141l.047-.047v-.023l.023-.023h.024l.047-.051v-.024l.023-.117.188-.191.16-.094h.047l.117-.238.07-.094.188-.309.047-.12v-.094h.07l.183-.168.094-.164.117-.215.07-.192.048-.21v-.192l-.094-.117h-.094l-.047.023h-.117l-.043.024h-.047l-.21.023-.282.215-.211.117-.113.024h-.047l-.094.046h-.023l-.047.028h-.047l-.047.02h-.047l-.21.074-.208.164-.07.023h-.07l-.047.098-.094.093-.14.094-.16.074-.376.188-.441.191-.446.164-.418.121-.375.094-.21.024-.254.191-.282.168-.77.309-.886.257-.976.29-.98.234-1.306.383-.375.117-.605.262-.328.046-.418.07-.535.122-.61.164-1.375.43-2.914 1.047-1.258.519-.933.406-.465.262-.559.355-.656.477-.324.258-.328.336-.301.332-.281.332-.258.355-.23.356-.188.383-.14.355-.047.188-.024.335v.188l.024.191.07.309.094.168"/><path fill="#6f878e" d="M9.488 30.941h.117v.239l.258.261.188-.023.183-.047.375-.191.164-.098.325-.117.14-.024.024-.07.047-.074.07-.07.094-.024.07-.047.09-.023.047-.047.07-.023v-.145l.281-.191.258-.188.559-.309.582-.285.605-.238 1.238-.402 1.282-.336 1.28-.282 1.263-.335.629-.211.582-.192.582-.262.558-.285v-.117l.164-.098.746-.261.422-.188.442-.191.394-.192.117-.093.188-.168.047-.094h.164l.3-.07.165-.07.304-.192.325-.238.585-.38.348-.144.305-.047.605-.5.465-.332.188-.117.14-.047.024-.047.511-.406.07-.094.024-.093h.07l.118-.098.14-.07.067-.047.047-.024h.07l.117-.144.024-.047.023-.07.164-.192.047-.047h.117l.07-.117.043-.097.118-.188.07-.074.047-.117.023-.094v-.098l.117-.023.141-.094.117-.117.184-.336.07-.14v-.169l-.07-.117-.371.07h-.094l-.188.094-.207.121-.093.07h-.094l-.399.024-.046.023-.067.024-.14.098-.047.07-.07.047-.07.023-.048.024-.047.074-.351.234-.324.168-.817.262-.371.117-.305.07-.21.024-.255.144-.28.145-.305.14-.395.118-.793.261-1.773.477-1.188.332-.328.117-.324.074-.235.118-.304.023-.371.07-.465.121-.563.168-1.234.38-1.281.449-1.286.476-1.117.477-.468.164-.63.332-.163.12-.512.286-.277.191-.305.235-.281.262-.301.261-.258.309-.281.308-.418.641-.164.313-.117.355-.047.164-.024.145v.332l.047.285.047.14.07.168"/><path fill="#9bb5bd" d="m23.246 29.445 1.375-.238.535-.14.492-.169.489-.168.488-.234.563-.285.628-.383.278-.187.375-.168.351-.215.79-.403.35-.19.306-.165.3-.168.164-.117.446-.285.465-.309.441-.262.164-.12 3.918-2.47.254-.214.305-.239.605-.664.676-.761.676-.832.722-.758.352-.356.351-.289.348-.285.188-.094.14-.093.348-.122.164-.023h.164l-.047.785-.047.43-.047.379-.093.379-.235.761-.254.735-.351.691-.207.356-.164.355-.676.977-.469.64-1.047 1.188-.562.57-.559.547-1.14 1.043-.563.477-.371.355-.398.285-.723.547-.371.238-1.074.618-.348.168-.7.308-.698.211-.653.191-.351.07-.676.098-.653.07h-1.378l-.7-.046-.675-.074-1.446-.235-.023-.097-.07-.118-.16-.285-.118-.14-.258-.215v-.168l.07-.285.024-.118v-.19h.094l.023-.024-.07-.07h-.047"/><path fill="#a1bac2" d="m23.898 29.398.676-.097.582-.094.516-.14.441-.145.469-.192.953-.472.606-.332.28-.192.306-.144.699-.402 1-.524.61-.379.206-.144.84-.52.164-.121.465-.262.91-.593.465-.286.887-.593.468-.262.465-.309.235-.164.254-.238 1.19-1.309.981-1.14.325-.356.652-.617.328-.215.305-.191.16-.07.328-.094h.117v.762l-.047.378-.07.38-.187.714-.235.664-.113.332-.328.664-.164.336-.793 1.235-.442.57-.468.594-1 1.07-.563.496-.512.5-1.047.926-.351.308-.348.262-.375.262-.328.238-.347.238-.653.403-.351.168-.301.14-.352.168-.933.356-.301.07-.629.145-.633.093-.629.047-.629.024L27 31.32l-.605-.047-.653-.07-1.355-.191-.02-.07-.047-.145-.093-.117-.07-.14-.212-.216-.14-.097v-.188l.093-.355v-.168h.07l.024-.024v-.023h-.023v-.024l-.047-.023-.024-.024"/><path fill="#a7c0c8" d="m24.55 29.371.63-.07.539-.117.465-.118.418-.144.398-.168.441-.188.47-.261.534-.309.559-.308.305-.168.351-.188.652-.309.254-.168.235-.144.722-.473.211-.12.371-.24.165-.093.398-.285.418-.238 1.68-1.067.418-.261.445-.286.23-.144.235-.238 2.285-2.586.3-.29.61-.495.418-.215.164-.047.281-.047v.355l-.023.356-.047.332-.14.691-.188.617-.094.333-.14.285-.141.332-.3.593-.376.594-.371.547-.398.547-.465.523-.442.5-.468.473-.489.477-.957.902-.488.426-.652.523-.653.477-.304.215-.328.187-.278.168-.605.309-.328.117-.282.144-.883.286-.585.117-1.141.144h-1.168l-.582-.047-.606-.074-1.234-.164-.023-.098-.118-.234-.093-.121-.258-.262-.047-.023v-.094l.023-.07v-.074l.047-.165v-.097l.024-.094v-.07h.07l.024-.024-.094-.074"/><path fill="#adc5cc" d="m25.203 29.352.563-.075.488-.093.816-.239.395-.14.816-.43.723-.426.863-.453.582-.332.281-.14.329-.215.183-.098.352-.211.187-.145.16-.117.188-.097.516-.332.37-.239.77-.496.395-.238.77-.5.374-.238.235-.141.23-.215 1.004-1.117.793-.95.559-.57.304-.238.535-.355.118-.07.257-.051h.137v.312l-.023.332-.094.594-.066.308-.165.618-.351.832-.277.547-.329.546-.347.497-.375.5-.418.5-.84.902-.91.832-.887.809-.582.472-.605.43-.559.379-.563.308-.558.262-.535.192-.54.164-.511.12-.535.094-.54.024-.534.047-.512-.047-1.098-.07-1.14-.192v-.07l-.07-.094-.141-.215-.07-.117-.094-.098-.118-.07v-.07l.024-.051v-.094l.047-.164v-.074l.023-.07v-.07h.047l.023-.024v-.024l-.023-.027h-.023l-.024-.02"/><path fill="#b3cbd2" d="m25.86 29.352.953-.192.375-.094.347-.12.7-.286 1.585-.902.54-.262.277-.164.234-.121.188-.117.117-.07.676-.43.277-.192.14-.07.325-.238.375-.215.351-.211.7-.453.347-.211.328-.215.371-.238.399-.332.21-.215.231-.238.465-.57 1.004-1.141.258-.239.254-.21.234-.169.258-.14.117-.074.348-.07v.308l-.024.285-.093.57-.114.547-.187.524-.235.523-.234.496-.3.477-.677.926-.351.43-.371.425-.399.406-.816.782-.816.714-.559.45-.512.382-.535.332-.492.286-.512.238-.957.332-.957.187-1 .051-.957-.05-1.539-.212v-.074l-.117-.187-.07-.094-.094-.098-.067-.093-.047-.047h-.046v-.074l.023-.07v-.071l.023-.07v-.215l.047-.07h.02l.023-.028-.023-.02h-.02"/><path fill="#b9d0d8" d="m26.465 29.3.887-.14.347-.094.328-.097.301-.14.676-.333.605-.36.211-.093 1.168-.64.301-.192.117-.07.164-.118.442-.261.886-.57.305-.192.957-.617.324-.168.305-.211.348-.29.398-.425.86-1.023.468-.496.465-.43.211-.164.441-.192.094-.047h.117l-.023.286v.261l-.094.5-.094.496-.16.477-.21.45-.212.476-.558.855-.328.38-.301.429-1.445 1.426-1.215 1.043-.489.336-.468.308-.465.258-.441.215-.422.168-.465.117-.422.098-.442.07-.417.047h-.887l-.887-.094-.91-.121-.023-.07-.047-.07-.047-.098-.07-.094-.208-.191-.046-.024v-.07l.023-.047v-.07l.023-.075v-.07l.024-.047v-.12l.047-.02h.023l-.023-.051h-.047"/><path fill="#bfd6dd" d="m27.117 29.277.418-.07.676-.14.562-.215.582-.286.372-.214.164-.094.422-.238.628-.356.211-.074.16-.094.07-.07.141-.074.118-.094.164-.094.136-.094.118-.047.117-.097.094-.047 2.238-1.45.14-.07.536-.523.375-.477.812-.902.399-.355.21-.145.372-.21.187-.024v.472l-.07.453-.117.45-.141.43-.184.402-.21.383-.235.402-.254.379-.281.383-.582.664-.98.949-.63.57-.445.356-.418.336-.84.472-.77.332-.417.121-.375.094-.395.047-.375.023h-.77l-.417-.023-.399-.023-.394-.07-.399-.048-.046-.144-.184-.238-.07-.047-.047-.047-.047-.024.023-.047v-.12l.024-.07v-.048l.023-.07v-.07h.047l.023-.051h-.046l-.024-.024"/><path fill="#9bb5bd" d="M15.227 32.035h.113l.094-.023h.07l.21-.075h.071l.07-.023.07-.094.095-.117.136-.191.024-.024h.28l.282-.047.278-.07.28-.098.583-.214.582-.211.605-.192.328-.047.305-.023h.277l.329.023.3.094.328.145.024.047v.046l.047.168v.07l.023.048v.046l.188.118.164.12.113.118.14.308.048.192v.332l-.07.383-.188.426-.117.167-.114.211-.164.192-.117.215-.348.379-.351.379-.793.62-.395.235-.375.191-.187.07-.324.098h-.164l-.211-.097-.141-.047-.184-.024-.421-.047-.465-.023h-1.239l-.207.023-.023-.07-.07-.12-.235-.24-.3-.234-.188-.12-.07-.215-.047-.235-.024-.238v-.406l.094-.38.07-.19.164-.333.23-.355.235-.332.282-.309"/><path fill="#a1bac2" d="M15.55 32.129h.188l.094-.024.14-.046h.048l.066-.024h.047l.047-.097.07-.047.047-.07.117-.118.047-.074h.234l.278-.047.257-.07 1.633-.57.559-.145.305-.024h.277l.305.051.277.07.305.118v.047l.047.097v.07l.023.094v.07l.047.028.14.094.254.238.094.14.07.169.047.308-.047.356-.14.355-.09.192-.211.378-.258.36-.324.379-.352.332-.722.593-.352.192-.347.187-.188.075-.164.047-.277.046-.094-.07-.117-.047-.14-.023-.56-.074-.445-.024h-.812l-.328.024h-.165l-.207-.262-.398-.356-.117-.07h-.094l-.07-.238-.043-.403v-.406l.09-.355.07-.164.164-.336.188-.332.488-.594"/><path fill="#a7c0c8" d="m15.902 32.227.07-.028h.114l.047-.023h.07l.117-.047h.117l.047-.07.094-.121.094-.094.047-.094h.23l.235-.047.511-.121 1.262-.473.277-.074.258-.023.281-.047h.254l.282.047.257.047.278.144v.024l.023.046v.047l.047.121v.047l.023.024v.07l.141.07.14.121.184.239.094.285v.308l-.094.333-.136.355-.188.332-.558.691-.633.618-.371.238-.328.21-.489.216-.14.047-.164.023h-.137l-.047-.047-.117-.047-.117-.023-.536-.047h-.398l-.418-.024-.375.024h-.441l-.094-.145-.328-.355-.23-.14-.095-.028-.07-.211-.023-.191-.024-.188v-.36l.14-.495.165-.313.184-.308.21-.262.258-.281"/><path fill="#adc5cc" d="M16.203 32.32h.094l.094-.023h.07l.047-.024.07-.027h.047l.047-.02h.047l.183-.214.07-.075.024-.046.188-.024.257-.023.907-.285.492-.188.465-.144.234-.047.254-.024h.234l.258.047.235.07.277.098v.094l.047.094v.023l.023.047v.074l.14.094.235.215.067.117.05.117.043.29-.043.28-.05.168-.137.309-.164.332-.258.309-.277.312-.282.281-.304.285-.301.215-.328.215-.465.215-.375.047-.16-.07-.258-.051-.352-.047h-1.515l-.024-.047-.066-.07-.07-.121-.118-.094-.117-.117-.117-.075-.094-.046-.093-.024-.024-.215-.047-.187v-.5l.047-.14.024-.145.046-.164.141-.262.188-.285.21-.262.184-.262"/><path fill="#b3cbd2" d="M16.555 32.414h.14l.114-.047h.046l.047-.023h.118l.093-.168.094-.07.023-.047v-.024l.418-.047.446-.12.84-.31.464-.14.188-.027.254-.02h.21l.235.02.211.074.23.094.024.023v.047l.023.023v.051l.024.047v.047l.023.023v.047l.14.07.118.098.14.192.048.117.02.14v.239l-.02.144-.047.164-.282.57-.464.594-.54.5-.3.192-.305.187-.258.145-.277.093-.117.024h-.117l-.141-.07-.23-.047-.653-.047h-1.05l-.024-.05-.07-.071-.07-.094-.094-.07-.301-.239-.07-.023-.094-.332v-.453l.023-.14.094-.31.14-.238.137-.261.399-.477"/><path fill="#b9d0d8" d="M16.879 32.508h.14l.07-.024h.024l.047-.023h.047l.047-.023h.047v-.024l.023-.047.094-.07.023-.05.07-.071v-.024l.372-.023.21-.047.958-.355.207-.075.398-.07.211-.023h.184l.21.023.212.047.207.098v.023l.023.047v.023l.024.047v.047l.023.023v.075l.14.07.188.164.047.098.047.238.023.094-.023.117-.047.262-.047.144-.07.14-.14.263-.442.523-.492.453-.254.211-.282.168-.234.094-.23.097-.211.024-.047-.05-.094-.024-.234-.047-.278-.024-.304-.023h-.606l-.21.023h-.141l-.137-.191-.094-.094-.187-.14-.07-.075h-.071l-.094-.308v-.426l.024-.121.093-.258.118-.238.304-.453.184-.215"/><path fill="#bfd6dd" d="M17.207 32.629h.07l.047-.024h.047l.047-.023h.047l.047-.023h.09v-.024l.023-.05.094-.094.047-.07v-.048h.187l.164-.027.348-.094.7-.261.538-.141h.371l.188.023.21.047.16.07v.075l.024.047v.023l.047.094v.023l.117.075.14.14.118.192v.308l-.14.473-.141.238-.188.262-.183.215-.235.238-.464.355-.235.164-.441.192h-.188l-.117-.047-.21-.07H18l-.281-.024-.254.024h-.305l-.047-.051-.093-.14-.07-.071-.255-.191-.07-.024v-.117l-.047-.145v-.5l.07-.234.118-.191.136-.215.164-.215.141-.164"/><path fill="#9bb5bd" d="M3.824 33.957v-.047l.047-.07.024-.117.07-.121.043-.141.07-.098.047-.14.094-.121.117-.024h.094l.418.074.117.047.117.024h.094l.023.07.117.262.07.144.184.211.07.098.07.07v.168l.142.281.21.262.141.145.16.07.14.117.536.36.188.117.046.047.024.046H9.84v.075l.047.093.023.145.047.117.043.14.094.239.047.074h.117v.094l-.024.07-.07.117-.184.239-.07.097-.047.07-.023.048-.582.07-1.051.098-.535-.024-.492-.05-.278-.048-.562-.14-.3-.074-.653-.258-.352-.336-.277-.379-.258-.355-.21-.38-.188-.406-.137-.355-.094-.356-.047-.359"/><path fill="#a4bcc4" d="m4.031 34.195.024-.047.023-.093.117-.215.14-.332.024-.024h.024v-.023h.023v-.023h.024v-.024l.07-.023h.117l.582.117h.07l.07.215.118.21.184.215.07.098.047.047v.14l.047.122.187.258.211.214.277.215.653.403.047.046v.051h2.285l.047.285.14.356.047.094.047.046h.094l.023.075-.023.117-.305.379-.07.074v.047l-.535.047-.465.047-.469.023h-.465l-.468-.047-.489-.094-.258-.074-.253-.094-.305-.093-.301-.121-.305-.286-.257-.355-.23-.309-.188-.355-.165-.356-.117-.312-.093-.356-.07-.285"/><path fill="#adc5cc" d="M4.29 34.41v-.023l.046-.07.023-.098.047-.094.07-.094v-.097l.047-.047v-.047l.047-.047v-.023h.024v-.024h.023l.07-.023h.208l.492.117v.047l.047.097.066.094.117.238.188.188v.121l.047.14.07.122.07.07.211.215.23.187.422.262.16.098.048.07h2.03v.07l.024.07.024.122.046.07.114.309.047.047h.07v.168l-.047.07-.207.262-.07.117-.887.097-.422.024h-.418l-.394-.047-.446-.098-.465-.14-.539-.192-.253-.261-.235-.309-.187-.285-.184-.309-.164-.308-.094-.309-.07-.262-.047-.285"/><path fill="#b6cdd5" d="m4.5 34.648.023-.046.047-.145.094-.14.07-.145v-.047l.067-.07h.023l.047-.024h.164l.211.047.14.047h.071l.043.14.07.075.047.094.188.238.047.047v.117l.093.191.047.094.188.191.722.477.047.07h1.77v.024l.047.168.046.094v.093l.118.215H9l.023.07-.023.075-.117.14-.07.07-.024.075-.047.047-.023.047-.418.046-.375.047-.348.024-.723-.047-.375-.094-.418-.121-.445-.164-.23-.238-.211-.262-.188-.238-.14-.285-.114-.235-.117-.289-.07-.234-.047-.239"/><path fill="#bfd6dd" d="M4.758 34.887v-.051l.066-.117.024-.07.047-.07.023-.122v-.047l.07-.07h.14l.165.047h.094l.113.023h.07v.047l.028.098.043.07.07.07.094.168.093.094v.07l.024.094.07.074.047.094.14.145.348.234.258.168.047.07h1.492l.024.024v.074l.07.14.047.169.066.093h.07v.07l-.16.239-.093.117-.024.023-.328.051-.629.047h-.304l-.63-.098-.745-.257-.188-.192-.184-.215-.164-.214-.234-.473-.07-.215-.09-.402"/><path fill="#9bb5bd" d="m22.43 5.637 1.957-.047 2.008-.024 1.98.047 1.984.098 2.004.21.98.169.954.191.492.117 1 .286.957.308.957.383.465.188.281.14.254.192.258.214.328.356.09.144.21.426.048.168.023.14v.169l-.21.238-.302-.047-.582-.074-.328-.094-.605-.215-1.262-.523-.976-.379-.329-.117-.347-.098-.352-.094-1.699-.168-.887-.07-.933-.047-1.914-.12-1.864-.095-2.566-.187-.746-.121-.653-.117-.84-.215-.206-.07-.211-.098-.164-.094v-.168l.07-.258v-.05l.023-.094v-.07l.235-.094.16-.098.07-.047.14-.117.048-.074"/><path fill="#a4bcc4" d="m23.082 5.734 3.613-.046h.887l.934.023.91.047.887.07.906.07.91.122.887.14.91.168.863.238 1.352.403.863.355.441.168.512.285.234.188.211.191.118.094.14.238.137.262.047.145.023.14v.121l-.023.047h-.047l-.024.047-.093.07-.02.047-.047.024-.539-.047-.254-.047-.28-.07-.56-.168-.585-.211-.56-.239-1.21-.453-.652-.164-.77-.074-1.61-.14-4.288-.239-.817-.047-.77-.047-.745-.097-.676-.07-.61-.118-.535-.12-.418-.142-.187-.07-.164-.098.023-.093v-.07l.047-.145v-.094l.024-.047v-.074l.023-.07.07-.047.282-.117.066-.051.117-.094.047-.094"/><path fill="#adc5cc" d="M23.71 5.828 27 5.781h.816l.817.047 1.633.07 1.652.192.793.14.816.168.793.192.817.262.77.261.792.332.489.211.234.168.21.14.188.169.184.332.047.12.023.095v.14l-.094.098-.07.047-.023.047-.043.023-.024.024h-.234l-.258-.024-.277-.047-.746-.215-1.051-.355-.559-.215-.535-.164-.586-.144-.676-.094-.722-.047-.77-.07-2.308-.145-1.563-.047-.723-.047-1.375-.144-.605-.07-.562-.094-.465-.121-.211-.07-.348-.118-.164-.098v-.07l.023-.07v-.07l.07-.192v-.121l.095-.047.093-.023.23-.14.095-.099.023-.07"/><path fill="#b6cdd5" d="m24.367 5.945 1.445-.047h2.215l1.47.047.745.051 1.445.188.723.097.7.14.745.192.723.239 1.399.523.21.07.208.117.234.094.234.121.164.141.137.144.07.094.047.094.024.121v.117l-.047.024-.024.047-.09.05-.07.047-.047.024-.047.047-.652-.07-.676-.145-.468-.14-.489-.169-.515-.164-1.024-.262-1.215-.144-1.375-.094-2.773-.117-1.305-.098-1.144-.14-.489-.098-.421-.094-.184-.047-.164-.047-.281-.144v-.07l.047-.192v-.047l.023-.047v-.07l.023-.047.07-.05.165-.047.234-.239"/><path fill="#bfd6dd" d="m24.996 6.043 1.305-.023h1.933l1.309.046 1.258.094.652.098 1.281.21.633.169 1.258.402.629.285.816.262.188.098.113.117.07.07.047.094.024.074v.094l-.325.262-.398-.024-.418-.047-.816-.191-.442-.14-1.355-.337-1.094-.117-3.637-.191-1.12-.094-1.028-.117-.418-.074-.375-.094-.324-.094-.235-.121v-.117l.047-.098v-.047l.024-.07v-.094h.07l.047-.047.14-.05.118-.118.023-.07"/><path fill="#82979d" d="m20.309 7.777.117-.238.16-.355.047-.168.047-.118.023-.12v-.094l-.023-.094-.047-.121-.047-.047-.066-.024h-.024l.863-.64-.21-.664 1.374.117 2.75-.238 4.97-.309 3.284.64 3.055.762 2.961 1.497.957 1.187.418 2.375-.3 1.832-1.587 1.922.653-.496.093-.121.047-.024.047-.07.07-.047.094-.098.07-.046.024-.118.113-.168.235-.238.14-.21.211-.169.324-.476.328-.735.278-.5.023-.238.047-.234.14-.454.048-.476v-.258l-.118-.621-.14-.426-.207-.379-.211-.359-.281-.379-.164-.144-.301-.282-.188-.144-.347-.192-.188-.21-.094-.098-.328-.188-.93-.383-.21-.07-.305-.047-.883-.285-.351-.14-.676-.168-.352-.094-.347-.074-1.051-.286-.23-.046-.141-.024-.258-.094-.094-.023h-.14l-.137.023h-.094l-.328-.097h-.164l-.09.027-.305-.074-.629-.094-.933-.07h-.328l-.301-.024-1.238-.05-1.817.074-.605.047-1.192.046-.3.07-.305.048-.328.027-.653.094-.464.093-.118.047-.3.145h-.211l-.422-.047h-.207l-.235-.023h-.21l-.465-.051-.141.05-.352.047h-.136l-.352.047-.164.047-.14.07.07.024.07.05.352.118h.07l.207.238.047.094v.07l-.047.074-.066.07-.165.095-.257.093-.211.121-.114.07-.093.071-.07.074-.024.117.281.094.137.028.14.046.282.141.047.047.047.121.023.07-.14.192-.118.047-.258.046-.234.047-.16.098-.164.07-.094.047-.047.047v.07l.094.075.117.07.14.047.114.047.375.07h.14v-.14"/><path fill="#8f876b" d="M65.672 34.922s-2.344-1-3.703-2.863c-1.364-1.864-.492-3.168.105-3.696.63-.558 2.262-.027 2.262-.027-2.422-1.918-4.086 1.195-3.27 3.305.82 2.113 2.536 2.808 4.852 4.254 2.316 1.445 2.781 4.171 1.418 5.894-1.363 1.723-2.617.973-2.617.973-.516-2.309-2.016-4.086-2.016-4.086s.082-.223.055-.528c0-.308-.438-.75-.438-.75.274-.503.164-1.113.164-1.113-.164-1.808-2.672-2.058-2.672-2.058s-.597-.473-.898-.61c-.3-.14-.898.028-.898.028s.437-1.141.109-2.446c-.3-1.336-1.5-1.558-1.5-1.558s.766 1.086 1.008 2.086c.246 1-.028 1.863-.028 1.863s-1.171-.168-2.316-.25c-1.144-.086-1.008.441-1.96.055-.954-.391-.735-1.918-.735-1.918s-.192.136-.246.859c-.055.723.652 1.363.652 1.363s-.68 0-1.168.028c-.465.027-2.289.418-2.289.418s.297-.141-.984-.75c-1.278-.641-2.153-2.836-2.153-2.836-.789.472-.789 1-.68 1.39.11.387.028.75-.519 1.25-.543.5-.406 1.446-.406 1.446l-1.582.027s.355-1.777-.817-3.195c-1.09-1.504-1.636.359-1.636.359s.027.086-.625-.277c-.684-.36-1.09.695-1.09.695s-.383-.363-.656-.64c-.243-.305-.844-2.169-.243-4.169.598-2.004 1.934-2.222 2.18-2.64.246-.418-.437-.973-.437-.973s.19 0 .328-.613c.136-.61-.246-.555-.246-.555s-.493-.418.925-2.223c1.418-1.808 4.278-1.168 6.27-.503 1.988.667 2.234-.137 2.613-1.137.41-1.004-.488-2.227 2.563-2.586 3.05-.363 2.914-2.281 3.57-5.227.652-2.976 3.707-3.058 3.707-3.058-4.227-3.696-9.758.054-12.238 1.78-2.477 1.724-5.614 2.224-5.614 2.224l-.16-.082c-.847-2.422-4.035-.391-4.988.636-.953 1.032-1.336 2.64-2.398 2.586-1.008-.054-1.551 3.754-1.551 3.754s-.903.195-3.356 3.168c-2.449 2.973-3.16 9.117-2.668 13.04.489 3.917 2.317 7.171 2.317 7.171s-1.961-1.586-2.864-1.836c-.87-.25-.433 1.418-.433 1.418l-.328.445c-.465.637-1.035 2.055 1.035 3.364 2.07 1.304 5.805.804 5.805.804l.3.418-.136.082c-.137.086-.301.809-.301.809s-.598-.25-1.309-.14c-.707.113-.027 1.113-.027 1.113l-.379.054c-.383.055-.383 1.723-.383 1.723s-.734-.082-1.418.14c-.68.223-.46 2.114-.46 2.114s-2.536.36-2.481 1.027c.055.668 2.64 2.168 7.656 2 5.016-.137 8.23-3.777 8.23-3.777s-.246.527-1.199 2.832c-.953 2.308-.98 5.476-.98 5.476s.324-2.113 1.117-4.586c.79-2.445 2.504-4.195 2.504-4.195s.328.278.602.637c.273.363 1.171.363 1.171.363l.192.028s-.028 3.167 1.035 4.585c1.035 1.418 2.508 1.586 4.277-.332 1.77-1.918 2.125-6.562 2.125-6.562l1.364-1.305.515-.113c.52-.11 2.207-1.418 2.207-1.418-.242 1.309-1.36 3.004-1.66 3.254-.3.25-.11.777.707-.223.82-1 1.582-3.668 1.582-3.668.762-.64 1.797-1.781 1.797-1.781.219 1.059.328 3.7.191 5.531-.136 1.836-1.445 4.672-1.445 4.672.984-.863 1.637-3.363 1.938-5.394.297-2.028 0-5.727 0-5.727.707-.61 2.097-3.473 2.097-3.473.407.582.844 2.473 1.172 4.614.328 2.14-.41 4.726-.765 5.308-.352.586-.106.614-.106.614.707.277 1.441-3.391 1.441-5.086 0-1.7-.27-3.364-.27-3.364.407.47 1.118.75 1.118.75s.27-.113.625 1.891c.356 2-.492 3.5-.246 3.586.246.082.684-.973.711-2.477.027-1.5-.219-2.613-.219-2.613.817.277 3.653-.555 3.813-3.945.054-3.422-3.215-4.922-3.215-4.922ZM47.715 56.855c-2.043-.082-1.633-4.199-1.633-4.199 3.105.446 5.258-1.832 5.258-1.832.164 1.528-1.582 6.14-3.625 6.031Zm0 0"/><path fill="#cdcbb3" d="M47.496 47.21c.11.083.246.192.383.25.246.11.492.11.762.028-.055-.027-.082-.054-.11-.054a.888.888 0 0 1-.543-.282c-.082-.082-.164-.164-.246-.25l-.164-.164c-.137-.113-.297-.195-.488-.14-.219.054-.465.113-.684.168-.351.082-.734.136-1.117.054a.507.507 0 0 1-.191-.054c-.078-.055-.16-.141-.297-.25-.438-.364-.844-1.168-1.09-1.754-.246-.582.598-.696.707-1.028.11-.332-.79-1.14-.68-1.808.082-.664 1.742-2.168 1.742-2.168l-1.308.195s-.844-.582-.79-1c.056-.418 2.563-.973 3.79-.973 1.226 0 3.16-.972 3.16-.972s3.188-.473 3.297.11c.11.585-2.453 2.14-1.824 2.53.652.36-.164 2.141-.164 2.141s.843-.25.925-.363c.082-.082 1.743-4.309 4.086-5.64 2.344-1.337 3.625-1.196 3.625-1.196 2.207.5 1.88 2.75 1.88 2.75l.245.027s.465-1.25-.543-2.277c-1.007-1.028-2.261-.945-2.261-.945s-.328-.446-.793-.528c-.461-.086-.68.11-.735.082-.054-.027 0-.168 0-.168s.274-1.527 0-2.613c-.273-1.082-1.39-1.277-1.39-1.277s.52.554.925 1.668c.41 1.113.055 2.25.055 2.25s-.27-.055-.953-.137c-.68-.055-1.906-.113-2.207-.027-.3.082-.652.222-1.363-.196-.68-.418-.543-1.781-.543-1.781s-.383.668-.137 1.418c.164.445.438.809.438.809s-.602-.028-2.836.332c-2.235.39-2.805 1.64-2.805 1.64s-3 .723-4.688 1.723c-1.691 1-1.636 2.863-1.636 2.863l-.38.473s-.628-.055-.245-.278c.379-.222.324-.722.324-.75 0-.027.11-1.14.875-2.418.762-1.28 3.215-1.917 3.215-1.917s-.817-.418-2.235.332c-2.125 1.167-2.289 3.808-2.289 3.808s-.328.055-.574.723c-.242.668-.082 1.918-.082 1.918s-.242.277-.543 3.504c-.3 3.222 3.324 5.226 3.324 5.226.22 0 1.446-.836 1.446-.836s-2.098-.918-3.082-3.808c-.98-2.89-.11-3.809-.11-3.809s.41-.414.903-.25c.488.168.98-.305.98-.305v.082s-.027 0-.027.028a.874.874 0 0 0-.137.336c-.027.195-.055.39-.082.554a6.105 6.105 0 0 0 0 1c.027.446.11.891.219 1.336a2.298 2.298 0 0 0 1.008 1.364c.437.277.898.5 1.39.636a2.696 2.696 0 0 0 1.633.028c.164-.028.3-.082.465-.11.328-.054.3-.082.57.14ZM39.05 39.508c-.109 0 .11-.696.434-1 .328-.305-.57-.555-.57-.555l-1.144.305s-2.098-.223-3.762-.5c-1.688-.278-2.207-1.64-3.242-2.446-1.036-.808-1.934-4.476-1.934-4.808 0-.336.57-2.504.57-2.504l-.16-.168s-.027-.387 0-.61c.028-.222-.027-.417-.137-.64-.738-1.445 3.188-6.922 3.106-6.867-5.695 3.031-5.313 10.648-5.313 10.648l.352 1.39s.164 1.724.383 1.974.734.75.734.75.028.918 0 1.195c-.027.277.164 1.058.438 1.336.273.277.734.445.734.445l.41 1.918s1.418 2.055 1.61 2.25c.187.195 1.742 2.113 2.394 2.531.656.418 2.125.637 2.754.668.625.028 1.09-1.613 1.09-1.613s.844-2.031 1.035-2.477c.219-.472.328-1.222.219-1.222Zm0 0"/><path fill="#cdcbb3" d="M32.54 23.023s-1.2 2.614-1.638 3.504c-.41.891.63-.445.762-.168.137.278-.352 1.309-.055 1.168.301-.136.957-.777 1.067-.527.105.25-.465 1.14-.356 1.336.11.191.434-.504.516-.309.082.168-.27 2.336-.11 3.477.165 1.14.465 1.555.657 1.418.191-.14.383.445.734.582.356.14.711-.582.871-.582.164 0 .192 1.723.41 1.473.247-.25.465-1.641.79-1.223.328.418.71 3.754 3 3.668 0 0-1.254-.5-1.665-1.473-.406-.972-.597-2.5-.734-2.613-.137-.11-.355 0-.684-.055-.324-.086-.296-.277-.406-.472-.027-.028-.027-.082-.027-.141.11.223.273.473.406.445.246-.027.711 0 .738.196.028.195 2.125 3.168 8.012 2.277 0 0-6.703-.164-8.992-4.695-2.29-4.532-1.719-8.813.297-11.036 2.02-2.226 5.586-4.558 5.586-4.558s-6.293 2.082-7.903 7.226c-.543 1.723-.515 3.391-.242 4.809-.246.027-.683.14-1.09-.14-.574-.387-.793-.723-.629-1.528.165-.75.684-2.059.684-2.059Zm1.116 4.227c.57 2.613 1.907 4.422 1.907 4.422-.274.055-.575.219-.602.414-.023.195-.215.723-.488.723-.301 0-1.063-.055-1.364-1.778-.273-1.281.301-2.976.547-3.781ZM64.938 43.68s-.41-1.973-.844-2.836c-.438-.864-1.418-2.14-1.418-2.14l-.356-.25s.246-.474-.218-.806a.487.487 0 0 0-.243-.14h-.027c-.355-.14-.98-.14-2.047.195a6.784 6.784 0 0 0-2.367 1.277s-2.617 2.004-3.3 4.06c-.216.304-.434.585-.626.89-.355.36-.68.722-.844 1.027.137-1.082.22-1.918.164-2.14-.109-.528-.355-.669-.546-.555-1.254.75-.274 2.054-.274 2.054s0 .559-.027 1.418c-.055.086-.11.168-.16.25 0 0-.575.641-.793 1.059 0 0 .3-.082.925-.418v.086c-.597.414-1.605 1.164-1.714 1.36 0 0 .437-.028 1.527-.583.055-.027.105-.054.16-.086v.086c-1.09.805-2.34 1.39-2.476 1.614 0 0 .488.027 1.687-.532.219-.082.465-.25.734-.414v.028c-.023.027-.078.054-.105.082-1.309 1-3.027 1.722-3.11 1.89 0 0 .52.082 1.856-.445.242-.11.57-.277.899-.5-.055.055-.11.082-.165.14-1.417 1.055-3.324 1.778-3.378 1.86 0 0 .546.14 2.015-.387a3.88 3.88 0 0 0 .82-.418c-1.554 1.114-3.652 1.864-3.652 1.864s.57.195 2.18-.336c.625-.192 1.5-.805 2.344-1.446-.192 1.196-.493 2.39-.899 3.422-1.472 3.64-3.625 2.918-3.625 2.918s.79 1.195 2.399-.113c1.605-1.305 1.933-3.778 2.37-6.2.028-.081.028-.163.051-.277 1.2-.972 2.262-1.945 2.262-1.945s1.117-.25 2.89-1.863a11.213 11.213 0 0 0 1.688-1.89c.164 1.03.575 3.644.356 5.448-.246 2.282-1.5 5.2-1.5 5.2s1.965-2.391 2.047-6.282c.054-2.558-.164-4.254-.328-5.144.273-.418.382-.668.382-.668.926-1.36 1.223-2.278 1.278-2.778.054-.195.11-.363.136-.472 0 0 .575.414 1.172 2.808.602 2.36.547 4.446.547 4.446s-.273 2.668-1.035 4.03c0 0 .242.474.652-.612.41-1.082 1.008-2.5.844-4.918-.16-2.418-.762-4.282-.762-4.282l-.3-1.168s.793.555 1.582 2.196a10.14 10.14 0 0 1 .953 3.281s.136 1.668-.082 2.531c-.219.832-.164.805-.164.805s.629-.613.71-1.75c.083-1.14-.246-3.531-.246-3.531ZM32.945 52.129c1.254.14 3.625-.473 3.625-.473s-2.234-.082-3.242-.636c-1.035-.56-2.289-1.45-2.125-1.364.192.055 2.695.918 2.262.582-.438-.332-1.883-2.113-1.309-1.418.598.696 3.352 1.336 3.27 1.282-.082-.059-1.39-.918-1.852-1.532-.465-.61-1.008-1.332-1.062-1.39l-.082-.192s-.383.36-.684.582c-.297.196-.789.028-1.144.114-.352.082-.215.5-.325 1.054-.109.582-.328.946-.547 1.364-.218.414-.41.386-1.226.609-.817.223-.68 2.168-.68 2.168s-2.754.668-1.664.945c4.2 1.086 8.258.864 9.918-.414.082-.058-2.777.278-3.95.082-.651-.113-3.405-1-3.35-1.277.027-.281 1.335.472 2.507.75 2.453.582 3.977-.14 4.086-.14.082 0-3.625-.11-4.36-.528-.761-.418-1.335-.668-1.636-1.086-.297-.414 2.316.781 3.57.918ZM27.797 44.848c.3.222.57.414.57.386 0 0-.27-.164-.57-.386Zm0 0"/><path fill="#cdcbb3" d="M25.262 43.152c-.082 1.028 1.61 2.723 1.746 2.75.133.028-.383-1.304-.219-1.5.11-.113.598.168 1.008.418-.082-.058-.164-.113-.246-.195-.383-.309-.79-.668-.79-1.059 0-.386.544.446.735.559.164.11-.762-1.14-.926-1.39-.191-.278 1.473 1.027 1.528 1.027.054.027-1.145-1.14-1.309-1.89-.164-.75 1.309 1.058 1.39 1.112.079.055-.847-1.222-.765-1.558.082-.332.547.418.629.531.324.61 1.254.777 1.305.75.054-.027-1.25-.973-1.524-1.445-.273-.5-1.336-.864-1.96-.864-.63.028-.137 1.446-.137 1.446s-.383.304-.465 1.308ZM44.855 43.68s2.56.636 3.051.25c.465-.364-2.644-.75-3.05-.25ZM49.977 43.316c.98-.832.98-1.609.789-1.5l-.707.418s-.356 1.418-1.582 1.418c0-.027.52.473 1.5-.336ZM48.07 41.371s1.309-.61 2.07.363c0 0 .055-.722-1.199-.972s-1.851.25-1.632.304c.187.082.761.305.761.305ZM42.238 51.492c.055-.086.871-1.308 2.043-.945 1.172.387 1.172 3.027 1.172 3.027s.11 2.031.246.668c0-.082.383-2.5-.68-3.668-1.226-1.363-2.78.918-2.78.918ZM38.098 12.043c.109.168.297-.191.87-.277.571-.082.489 0 .762.054.274.086.63-.027.739.086.082.11-.301.332.054.332.352 0 .38 0 .434.114.027.082.273.472.328.277.055-.168.219-1.14-.762-1.39-.984-.25-2.535.14-3.3 1.14 0 0 .765-.5.875-.336ZM48.805 42.457a.593.593 0 0 1-.2.45.676.676 0 0 1-.48.187.692.692 0 0 1-.484-.188.593.593 0 0 1-.2-.449c0-.18.067-.328.2-.453a.692.692 0 0 1 .484-.188c.188 0 .348.063.48.188.133.125.2.273.2.453Zm0 0"/><path fill="#494432" d="M51.531 44.234c-.11-.195-.164-.418-.218-.609-.028-.086-.028-.195-.055-.281a1.017 1.017 0 0 1 .027-.637c.028-.113.082-.25.11-.363.027-.082.027-.164.027-.25 0-.11-.027-.196-.137-.25-.027-.028-.082-.028-.11-.055a.227.227 0 0 0-.136.223c-.082.277-.246.527-.406.777a2.483 2.483 0 0 1-1.446 1.027c-.3.086-.628.114-.925-.054-.028 0-.055 0-.055-.028-.055 0-.082.028-.11.055v.113c.028.028.083.055.11.11.027.027.055.054.082.086-.027.082-.11.109-.164.164-.246.14-.52.222-.79.25-.327 0-.683 0-1.01-.082a2.555 2.555 0 0 0-.79-.055 1.72 1.72 0 0 0-.543.11c-.355.14-.52.472-.465.835.028.192.082.36.22.528.245.332.57.527.952.609.192.059.41.031.625 0a.98.98 0 0 0 .301-.11.207.207 0 0 1 .11-.054c.109-.027.218-.086.328-.113a.971.971 0 0 1 .246-.11c.105-.027.214-.054.324 0 .137.028.3.082.437.168.164.082.328.137.516.11h.246c.055.445.137.64.3.945.083.168.22.25.411.25a.897.897 0 0 0 .625-.25c.219-.168.383-.39.52-.64.105-.25.214-.5.324-.75.11-.25.273-.5.437-.723.028-.028.028-.055.055-.055.137-.195.191-.39.082-.613a.326.326 0 0 0-.055-.278Zm0 0"/><path fill="#494432" d="M46.242 51.074c.602-.336.52-1 .055-1.668 1.144.25 2.426-1.695.793-2.168-.656 0-1.063.332-1.719.196-1.988-.114-3.758-1.641-3.73-4.282-.274-.89-.903 3.028.925 5.446-2.261-1.082-1.988-4.114-2.289-4.946-1.226.887-.109 5.086 1.063 6.059.219.25.488.418.762.586-.735.941-2.832 3.363-5.641 3.973-3.488.777-6.621 1.222-8.527.335l-1.91-.863s-.489 1.223 4.199 1.89c4.687.669 8.066-.835 10.816-3.253 1.281-1.14 1.879-1.832 2.152-2.25.356-.14.844-.223 1.582-.055.653.137.844.528 1.036 1.028h-.028c.055.195.11.39.137.554.953.278 1.008-.554.324-.582Zm0 0"/><path fill="#494432" d="M48.453 48.598c-.191-.028-.383.058-.547.168-.136.082-.136.25-.054.39.054.082.136.11.218.137.055.027.137.027.192.027.191.032.297-.054.406-.191.082-.113.055-.223.027-.363-.054-.11-.136-.137-.242-.168ZM47.688 49.352c-.083-.059-.192-.059-.301-.114-.106.028-.188.028-.27.055-.191.059-.219.25-.054.39.082.055.164.11.246.169.187.109.379.054.488-.141.082-.11.055-.277-.11-.36ZM48.586 47.598s-.055 0-.11.027c-.132.059-.187.223-.105.363.106.196.406.223.57.055.11-.082.11-.25-.027-.36-.082-.085-.191-.113-.328-.085ZM37.496 33.754c0 .195.055.586.191 1.031.165-.531.493-.945-.19-1.031ZM41.719 35.45c-.844-.333-1.578.472-2.367.585.16-.39.57-.613.843-.918.461-.89-1.117 0-1.39.082.027-.304.465-.527.629-.777.023-.613-1.418.14-1.692.305.082.25.192.53.356.808.406.668 1.386 1.195 1.879 1.445.437-.308.843-1.03 1.742-1.53ZM55.262 36.285s-.133-.277-.078-.472c.05-.196.406-.196.379-.75-.028-.528-.543-.696-1.008-.81-.461-.108-1.145-.331-1.145-.331-1.418.055-3.16.168-4.25 1.168 2.125-.668 3.813-.668 4.742.5 0 .027 0 .055-.027.055-.164-.223-3.242-.278-2.152-.083.324.11 1.199.168 1.172.583-1.31-.25-2.7-.278-3.98.113-.083.027-.11.054-.11.137-.274.808-1.035 1.417-2.016 1.28-.437.028-.547-.722-.383-.835.766-.778-2.152.418-2.37.558-1.388.582-2.97 2.832-1.25 3.891.132.168.296-.14.433-.195.547-.473 1.172-1 1.906-1.14-.898.612-1.66 1.558-1.469 2.698.055.22.082.942.407.778.93-.918.957-1.504 2.289-.75.382.054.191-1.168.574-1.532.707-1.14 2.535-1.332 3.324-.195.219.309.598 0 .871.195.164.028.274.168.383.309.164-.031.488-.086.707-.309.328-.304.816-1.863 1.309-2.89.492-1.028 1.742-1.973 1.742-1.973Zm-8.309 3.668c0 .027 0 .027-.027.055-.028.113-.137.195-.274.222-.109.06-.246.06-.355.06-.106 0-.215-.032-.27-.114-.054-.028-.082-.055-.136-.082h-.028a.22.22 0 0 1 0-.305c.028-.031.082-.059.137-.086.082-.082.191-.168.297-.168a.689.689 0 0 1 .465.086c.082.027.164.082.191.168v.164Zm.516-.86v.028c0 .027 0 .055-.028.082a.059.059 0 0 1-.054.055c-.028 0-.028.027-.051.027 0 0-.027 0-.027.031-.028 0-.055.028-.082.028h-.137c-.028 0-.082 0-.11-.028-.027 0-.054-.03-.082-.058-.027-.028-.054-.055-.054-.082a.22.22 0 0 1 .054-.223l.028-.027c.027-.028.054-.055.082-.055.027 0 .027-.027.054-.027h.192c.027 0 .055 0 .082.027.023 0 .023.027.05.027.028 0 .028.028.028.028s.027.027.027.054c0 .055.028.083.028.114Zm1.008.778c-.106.055-.243.055-.352.055-.137 0-.273-.028-.355-.137-.083-.086-.11-.195-.083-.281a.308.308 0 0 1 .22-.223l.027-.027c.054-.028.082-.055.136-.082.137-.028.274-.028.407 0 .164.054.3.168.3.36 0 .167-.136.253-.3.335Zm1.582-.39c-.028.054-.028.085-.082.113l-.055.054a.507.507 0 0 1-.192.055h-.296c-.055 0-.082-.027-.11-.055-.027-.027-.054-.027-.082-.054-.027-.028-.054-.086-.082-.14a.22.22 0 0 1 .055-.224s.027-.027.055-.027v-.027c.054-.055.109-.082.164-.114.054-.027.109-.027.187-.027.055 0 .11 0 .191.028.055.03.137.058.192.113 0 0 .027.027.027.054v.028c.055.058.055.14.028.222Zm1.254-1.891c-.735.25-.247 1.168-.247 1.168-1.472-.446-1.687-1.028-.515-1.473 1.172-.445 2.558.332 2.558.332s-1.062-.25-1.797-.027ZM27.742 27.723c.356-.696.735-1.364 1.254-1.946-.082.25-1.828 3.559-1.117 3.418.351-.75.625-1.582 1.254-2.168-.11.278-1.254 2.668-.766 2.586.328-.527.547-1.195.98-1.668-.214-4.586 2.372-7.004 2.048-6.699.164-.39.57-.945.843-1.168l-.027-.25c-1.664 1.668-2.781 3.195-3.68 5.113-.082.25-1.496 3.559-.789 2.782ZM62.43 37.84c-.028-.028-.028-.055-.055-.082-.082-.028-.137-.082-.219-.082a2.631 2.631 0 0 0-1.062-.028c-.407.055-.817.192-1.2.332-.324.11-.624.278-.925.418-.707.332-1.364.75-1.989 1.223a9.449 9.449 0 0 0-1.664 1.64c-.027.028-.054.028-.054.055-.242.391-.516.778-.707 1.223-.028.055-.055.082-.055.14 0 .028 0 .083.027.11a.083.083 0 0 0 .11 0 .813.813 0 0 0 .328-.277v-.082c-.082.082-.137.136-.219.191-.027.031-.055.059-.11 0 .055-.164.165-.332.274-.5.137-.195.246-.387.38-.555.081-.14.19-.277.273-.39.19-.25.41-.473.656-.696.11-.082.187-.136.351-.082.028.055.055.082.082.141.082.11.192.137.328.082.055-.027.11-.055.137-.11.274-.222.57-.445.844-.667a9.695 9.695 0 0 1 2.453-1.39 5.43 5.43 0 0 1 1.879-.419c.055 0 .082 0 .137-.027 0-.055.027-.14 0-.168ZM27.414 33.45c-.027 1.417-.137 3.14.52 4.39.136-.778-.247-1.832.164-2.582 0 1.722.054 3.75.925 5.195.055-.86-.382-1.89.028-2.75.191 1.695.297 4.727 1.77 5.727-.22-1.032-.817-2.059-.708-3.2.543 1.727.98 3.504 1.907 5.09.054.11.328.414.3.137a7.242 7.242 0 0 1-.738-3.64c.492 1.863 1.117 3.976 2.48 5.363-.082-.805-.761-1.668-.624-2.582.46 1.445 1.335 2.918 2.535 3.808-.356-.863-.903-1.808-.93-2.836.465 1.11 1.012 2.196 1.828 3.059.137.11.598.723.68.441-.598-.832-.98-1.86-1.145-2.863.52.668.766 1.559 1.364 2.168.3.309.625.89 1.035.977-.301-.836-.817-1.7-.98-2.614.355.696.87 1.25 1.198 1.946.028.082.055.109.164.109-.792-2.027-.792-4.281-.355-6.395-.164-.722.164-1.5.137-2.222-.52-.055-1.364 2.39-1.555 2.945.055-1.555.848-3 1.172-4.5-.137-.223-.57.414-.68.555-.926 1.304-1.636 2.836-1.718 4.476-.215-1.363.218-2.808.355-4.172-.027-.082-.137-.027-.191.028-1.227 1.113-1.309 2.808-1.606 4.34-.355-.364-.11-5.535-.684-4.09-.57.945-.816 2.031-1.062 3.113-.98-2.223.219-6.726-1.418-2.277-.352-.555-.05-1.39-.187-2.032-.11-.582.109-1.222-.028-1.75-.219.055-.246.473-.383.641-.328.5-.492 1.14-.816 1.582-.191-.805.734-4.695-.438-1.972 0-.61.165-1.223.165-1.836-.301-.5-1.145 1.086-1.227 1.336-.383-.778.98-5.172-.57-2.614-.11-.832.297-1.722.351-2.472-.27.027-.46.414-.652.636-.027.032-.027.086-.11.086 0-.75.192-1.472.165-2.226-.356.086-.465.89-.657 1.226-.136-.113-.11-.39-.187-.586-.137 1.418-.137 2.864.078 4.254.3-.418.082-1 .328-1.418Zm0 0"/><path fill="#494432" d="M33.383 39.371c.328 0 1.281-1.781 1.605.277.055.391.657-.25 1.145-.586.52-.332.957-.44 1.039-.136.078.304 1.305-.864 1.305-.864s-4.82.473-7.164-2.445c-2.372-2.945-2.344-5.226-2.07-7.062 0 0-1.063 1.558-.848 2.172.218.609.683.664.601 1.109-.082.473-.383.559-.027.89.351.333.433.141.406.946-.027.805.164.945.547 1.168.383.222.625.527.707.75.082.25.191.918.219 1.113.027.192 1.226-.945 1.117.11-.055.39-.488 1.417-.082 1.667.41.25.953-1.195 1.281-.917.3.304-.137 1.808.219 1.808ZM40.059 17.41c-.028-.64.027-1.308-.164-1.918-.41.723-.165 1.805-.57 2.64-.083-.554.187-1.335-.11-1.78-.246.78-.246 1.753-.465 2.585-.164-.636-.027-1.527-.3-2.14-.27.89-.055 2.031-.38 2.95-.136-.642-.11-1.505-.547-1.977-.082.835.192 1.78-.027 2.64-1.144-3.695-.871-2.305-.734.39-.055.028-.055-.027-.082-.054l-.246-.836c-.164-.36-.274-.918-.625-1.11-.055 1 .406 2.083.27 3.114-.243-.695-.352-1.613-.872-2.113.11 1.14.492 2.39.41 3.586-.383-.836-.547-1.918-1.09-2.614.22 1.614.707 3.364.79 5.059-.329-.668-.274-1.527-.544-2.168-.191.39-.054 1-.109 1.473.297 3.281 1.906 7.035 5.066 8.34.165.113.329.027.11-.11-3.106-1.754-3.922-5.144-3.406-8.508.109 0 .054.223.191.196.164-.559.055-1.223.191-1.836.192.14.028.527.274.586.242-.532.242-1.168.46-1.782.11 1.532.438-.304.548-.777.27 1.25.379.168.46-.418.083.168.055.336.083.5.027 0 .027.027.054.027l.082-.082c.246-.418.164-.972.356-1.418.246 2.086.433-.304.68-.918.136.305.109.723.218 1.032.028-.032.082-.032.082 0 .383-.336 1.254-2.032 1.446-2.45.953-1.917.27-2.5 1.359-4.03-1.305.722-1.961 2.726-2.86 3.921Zm0 0"/><path fill="#494432" d="M34.09 20.691c.082.028.137-.03.137-.113.027-.36-.028-1.39.492-1.305.054.028.054.028.136 0 .028-.418.028-.863.352-1.195.246.027.219.473.438.387.027-.445-.028-.945.3-1.277.242.082.215.332.352.5.164.14.3-1.168.3-1.336.41.195.356.863.68 1.14.356-.5.383-1.168.41-1.777.274.137.329.582.493.832.324.25.242-1.25.324-1.473.273.196.328.668.492.973.41.14.383-1.223.516-1.527.164.195.191.472.273.695.3.387.356-1.14.656-1.254-.41 2.14 1.36-1 2.887-1.555-.137.223-.355.332-.465.582.438-.136.848-.582 1.282-.804.437-.332 1.007-.555 1.363-.973-.762.055-1.528.473-2.29.75-.109.055-.218.11-.327.14-.16.055-.325.083-.489.137a2.373 2.373 0 0 0-.465.196c-.136.082-.269.195-.406.277h-.027c-1.746.918-3.625 1.695-5.098 3.059-1.633 1.722-3.242 4.168-3.05 6.671.164-.5.054-1.668.734-1.75Zm0 0"/><path fill="#494432" d="M32.457 26.055c.082.082.164.168.242.195.055.027.11.027.137.055.027 0 .055 0 .082.027a1.326 1.326 0 0 1-.27-.61h.133c.301.083.492.305.684.555.055 0 .11 0 .164.028.055.027.082.054.11.054-.028-.414-.247-.804-.438-1.168.164-.027.328.223.465.309.379-.14-.328-.918-.465-1.168.492.195.953.61.515-.277-.816-1.168-.707-1.168-.597-2.559 0-.082.027-.168.054-.277-.164.554-.328 1.082-.328 1.082s.22.558.055 1c-.164.445-1.035 2.308-.543 2.754ZM33.844 28c-.461 1.473-.707 3.39.246 4.645.055.054.11.082.355-.418 0-.168.274-.418.356-.5 0-.364-.41-.223-.656-.196.109-.332.492-.445.765-.64.215-.5-.765-.25-1.039-.223.164-.527.711-.664 1.09-.887-.242-.25-.707-.195-1.035-.113.136-.195.191-.223.847-.36-.136-.28-.52-.53-1.062-.53.27-.137.516-.11.762-.137.082-.336-.328-.555-.63-.641ZM56.219 35.617l1.523-.695s-.488-.445-.433-.945c0 0-.903-.36-1.637-.168 0 0 .52.558.547.808.027.25 0 1 0 1Zm0 0"/><path fill="#2b291f" d="m47.824 47.434-.246-.254-.164-.164c-.133-.114-.297-.196-.488-.141-.219.055-.465.113-.684.168-.351.082-.734.137-1.117.055a4.366 4.366 0 0 1-1.797-.805c-.273-.195-.465-.473-.598-.781-.082-.164-.136-.36-.19-.528-.138-.472-.192-.972-.22-1.445a5.06 5.06 0 0 1 .028-1.11c0-.058.027-.14.027-.195 0-.027 0-.054-.027-.054-.028 0-.055 0-.082.027-.082.11-.11.223-.137.332-.027.195-.055.39-.082.555a6.153 6.153 0 0 0 0 1.004c.027.441.11.886.219 1.332a2.302 2.302 0 0 0 1.007 1.363c.438.277.899.5 1.391.64.273.083.543.137.816.137.192 0 .356-.027.547-.054-.71.25-1.691.5-2.425.39-1.063-.168-1.364-.836-1.446-1.113.41 1.805 2.344 1.64 3.543 1.332-.625.39-1.418.781-2.097.836-1.118.082-1.555-.5-1.72-.75 1.227 2.559 4.77-.086 4.77-.086l.137-.555.137-.277c.136-.027.191-.027.41.168.105.082.242.191.379.25.246.11.492.11.762.027-.051-.027-.079-.054-.106-.054a.692.692 0 0 1-.547-.25ZM44.664 18.3c1.09.11 1.988.387 2.617.665.625.25.98.5.98.5s-.245-.387-.82-.805c-.57-.418-1.468-.832-2.804-.918-.657-.027-1.172 0-1.582.086-.028 0-.082.027-.11.027.465-.14 1.09-.25 1.883-.308.164 0 .324-.027.488-.027.711 0 1.391.058 1.965.168.352.054.68.14.98.222.653.223 1.036.445 1.118.473 0 0-.274-.39-.902-.778-.106-.085-.243-.14-.38-.222-.6-.309-1.445-.559-2.562-.559-.652 0-1.2.059-1.633.196-.52.168-.93.363-1.199.558-.164.11-.3.219-.41.305-.273.25-.355.418-.355.418s.109-.086.355-.196c-.055.028-.082.055-.137.082-.437.278-.515.555-.515.555s.214-.164.734-.277c.438-.164 1.2-.277 2.29-.164ZM45.918 15.52c.191-.028.379-.082.57-.114.82-.136 1.637-.219 2.371-.219.438 0 .844.028 1.2.083.68.136 1.171.332 1.418.418 0 0-.356-.391-1.036-.723-.136-.059-.273-.14-.437-.195-.68-.25-1.606-.418-2.805-.31-.656.06-1.226.169-1.746.392-.762.335-1.336.668-1.77.972a6.918 6.918 0 0 0-.601.446c-.434.363-.57.582-.57.582s.324-.22.925-.5c.598-.305 1.446-.61 2.481-.832ZM53.793 7.68c1.496-.39 2.969-.473 4.223-.055 0 0-.762-.5-2.098-.668-1.336-.168-3.242 0-5.531 1.363-2.29 1.332-3.79 2.39-4.715 3.114-.926.722-1.254 1.082-1.254 1.082s2.152-1.641 4.934-3.086c1.386-.696 2.941-1.36 4.441-1.75ZM39.242 37.703a.19.19 0 0 0 .192-.195c-.137-.418-.957-.028-1.309-.11-1.473-.78-1.938-2.558-2.18-4.09-.41 1.337.27 2.922 1.145 3.95-1.664-.418-2.453-3.004-1.8-4.504-1.145.973-.435 3.195.437 4.254-1.227-.836-1.91-2.504-2.098-3.977-.274.64-.055 1.973.406 3.254-1.035-1.781-1.879-5.172-1.441-7.2-.739 1.392-.246 4.419.16 5.919-1.008-1.945-1.414-5.586-.27-7.559-1.117.89-1.172 4.95-.98 6.309-.547-1.5-.547-5.363.16-6.809.027-.086.027-.086-.027-.195-.844 1.082-1.145 2.695-1.035 4.031-.028.668-.188 1.364-.243 1.332 0 0-.382-.777.028-1.082-.41-.75.027-2.195.05-3.031-.351.777-.652 2.363-.542 3.168-.52-2.082.328-5.309 1.418-7.2-.22.028-.301.364-.438.528-.191.281-.273.695-.516.89 0 .028 0 .028-.027.055v-.027c.297-.832.57-1.75 1.117-2.445-.137.39-.355.722-.465 1.14.493-.613.79-1.445 1.418-1.945.082-.113.055-.223.028-.336a3.067 3.067 0 0 1-.11-.695c-.925.863-2.699 4.562-2.808 6.73l-.055.36c-.598 4.308 1.527 8.117 5.777 9.367 1.2.336 2.7.308 4.008.113ZM37.77 44.875c-.274 1.305.597 2.336.597 2.336s-.379-1.809.11-3.895c0 0-.434.25-.707 1.559ZM36.242 44.512c-.27 1.308.602 2.336.602 2.336s-.356-1.805.136-3.891c0 0-.464.25-.738 1.555ZM34.746 44.066c-.273 1.309.57 2.336.57 2.336s-.328-1.804.164-3.89c0 .027-.464.277-.734 1.554ZM33.41 43.316c-.3 1.309.543 2.336.543 2.336s-.324-1.804.192-3.89c0 0-.461.25-.735 1.554ZM32.973 40.898s-.461.223-.762 1.532c-.3 1.304.516 2.332.516 2.332s-.297-1.805.246-3.864ZM31.121 41.371c-.328 1.309.516 2.336.516 2.336s-.297-1.809.273-3.863c0 0-.46.25-.789 1.527ZM30.059 40.094c-.329 1.277.488 2.363.488 2.363s-.27-1.809.3-3.863c0-.032-.433.218-.788 1.5ZM30.059 37.09s-.465.222-.817 1.504c-.355 1.277.461 2.36.461 2.36s-.246-1.806.356-3.864Zm0 0"/><path fill="#2b291f" d="M29.512 35.59s-.461.222-.817 1.5c-.355 1.281.438 2.363.438 2.363s-.246-1.805.379-3.863Zm0 0"/><path fill="#2b291f" d="M28.969 34.117s-.465.223-.844 1.5c-.355 1.278.434 2.363.434 2.363s-.22-1.835.41-3.863Zm0 0"/><path fill="#2b291f" d="M28.422 32.613s-.461.223-.844 1.504c-.383 1.278.41 2.363.41 2.363s-.218-1.835.434-3.867Zm0 0"/><path fill="#2b291f" d="M27.879 31.14s-.465.196-.871 1.473c-.41 1.282.379 2.364.379 2.364s-.192-1.805.492-3.836Zm0 0"/><g clip-path="url(#f)"><path fill="#2b291f" d="M69.105 39.676c.137-4.336-5.203-4.7-7.058-7.672-2.367-3.059 1.555-5.254 3.11-1.695.35.804.816 1.332.952 2.195.329.223-.027-.777-.054-.945-.383-1.473-.98-3.254-2.563-3.754-1.77-.582-3.105 1.53-2.75 3.144.488 3.446 4.551 4.278 6.512 6.586.871 1.168.898 2.668.11 3.95-.657.777-1.419 1.636-2.29 1.25-.355-.305-.41-1-.629-1.419-.351-.945-1.007-1.695-1.605-2.472.137-.504.082-.946-.246-1.309.625-1.668-.653-3.113-2.18-3.363-.602-.168-1.309-1-1.988-.64-.055.027-.192.027-.246-.028.164-1.11.433-2.195-.356-3.14-.406-.446-1.09-1.055-1.742-.973 1.2.972 1.66 2.5 1.309 4.03-1.2-.14-1.993-.362-3.192-.194-1.199.168-1.879-.832-1.332-2.278 0-.808-1.445 1.528-.3 2.64-.981-.085-1.801.11-2.755.333-1.386-.723-2.75-1.75-3.242-3.309-.027-.168-.164-.168-.3-.168-.844.086-1.172 1.086-.762 1.782.164.777-1.281.918-.926 2.25-.355.027-.762 0-1.117-.055-.11-.945-.164-1.918-.68-2.75-.465-.918-1.883-1.168-2.262-.059-.52-.36-1.171-.25-1.527.309-1.254-1.14-1.254-3.395-.465-4.813.574-1.136 2.864-1.582 1.473-3.14.492-.25.52-.946.082-1.25-.41-1.196 1.09-2.168 1.988-2.696 1.719-.863 3.625-.39 5.313.332 2.562.696 2.37-1.75 3.164-3.308 1.441-1.082 3.379.14 4.55-2.305 1.09-2.504.79-6.617 4.551-6.422.133 0 .38 0 .27-.195-2.262-2.086-5.64-2.168-8.309-.973-3.27 1.582-6.078 4.196-9.785 4.727-.379-1.559-2.476-1.613-3.621-.945-1.445.695-2.18 2.14-3.027 3.445-.192.363-.543.64-.953.527-1.446.336-1.606 2.364-1.743 3.614-6.812 4.976-7.93 15.761-3.98 23.074-.79-.446-1.363-1.418-2.317-1.5-.98.082-.761 1.082-.625 1.722-1.39 1.028-.738 3.032.598 3.754 1.746 1.168 3.899 1.305 5.914 1.055.028.055.082.086.082.14-.136.11-.191.278-.246.446-.246.36-.844.027-1.226.223-.98.332-.461 1.695-.98 2.39-.22.332-.735.25-1.063.414-1.09.278-.489 1.89-1.446 2.254-.734.164-1.633.278-2.043 1.028 0 .945 1.391 1.195 2.043 1.585 4.414 1.86 9.977 1.168 13.625-2.003-.515 1.113-2.53 6.84-1.441 7.48.351-.14.215-1.613.406-2.059.547-2.418 1.309-4.976 3.078-6.78.492.636 1.117 1.027 1.91 1.054.22 2.863.68 6.84 4.086 5.308 2.153-1 3.078-4.003 3.489-7.394.41-.387.898-1.11 1.363-1.418.926-.36 1.715-1.027 2.48-1.695-.109.445-.546 2.195-1.363 2.836-.246.195-.383.363-.328.472 1.117.64 2.316-3.558 2.426-3.781.57-.445 1.308-1.168 1.77-1.668.546 2.195.19 7.035-1.387 9.785-.164.168-.028.25.136.25 2.805-2.89 2.422-8.422 2.125-11.035.817-.945 1.578-2.168 1.989-3.39 1.336 3.167 1.578 6.84-.028 9.921.543 1.086 1.063-.804 1.2-1.11.816-2.226.734-4.28.433-6.589.328.277.52.39.93.527.351 1.559.543 2.922.324 4.754-.055.14-.137.418.082.418 1.172-.832.793-3.308.602-4.89 2.207.054 3.949-1.754 4.003-4.422Zm-7.793-10.84c.52-.863 1.583-1.281 2.454-.75-1.172-.309-2.344.277-2.563 1.527-.055-.304-.027-.586.11-.777Zm-2.699 4.863c.356-.027.793.196.903.528-.22-.223-.438-.387-.766-.387-.11.027-.297-.031-.137-.14Zm-2.832.082.871.086.657.11s-.055.195 0 .418c.054.222.296.5.296.5l-1.253.527c.191-1.055-.57-1.64-.57-1.64Zm-1.062-.332c.953 0 1.687-.054 2.617.168-.027.223-.246.082-.383.082-.871-.25-1.445.11-2.316-.222 0-.028.027-.028.082-.028Zm-2.29-1.027c0-.14.083-.75.165-.89-.055.277-.055.527-.055.527.11 2.78 3.977.363 3.598 3.449-.11.082-.63.527-.766.582-.082-.195-.055-.305.082-.445.492-.387.137-1.141-.324-1.364-.984-.386-2.7-.414-2.7-1.86Zm-7.167 1.082c.355-.445 1.035-.832.793-1.5-.246-.5-.11-1.195.46-1.39.356 1.113 1.008 2.058 1.883 2.835-.847-.445-1.554-1.39-2.074-2.222 0 .636.656 1.582 1.172 2.054-.406-.11-.762-.386-1.117-.668.055.446.547.727.875 1.032-.383-.114-.793-.25-1.117-.5.054.25.515.582.761.777-.382.11-.656-.223-1.035-.195.137.25.38.363.625.5-.433.113-.816.113-1.226.195-.215-.223-.215-.64 0-.918Zm-5.91-1.445c.242-.61.816-.332 1.25-.137.3.082.382-.281.437-.473.082-.281.41-.336.656-.25 1.117.5.953 2.082 1.223 3.113-.055 0-.082.028-.133.028-.328-.89-.547-1.754-1.172-2.531.133.804.434 1.5.598 2.28-.41-.612-.625-1.417-1.2-1.944.192.609.466 1.195.684 1.804-.629-.082-.875-1.554-1.61-1.863.356.473.626.945.817 1.504-.543-.14-1.117-.64-1.578-1.004 0-.164-.082-.36.028-.527Zm-1.2-.75c-.054 0-.054-.028-.054-.082.054 0 .054.054.054.082Zm1.934-6.618c-.191.473-.574.782-.98 1.059-1.555 1.25-1.637 3.723-1.008 5.477-1.637-2.032-.328-5.004 1.199-6.618-.274.028-.492.223-.766.332.082-.527.63-.859.926-1.277-.105-.223-.598.168-.734.277-.11-.359 1.363-1.222.41-1.195.137-.473.324-1.055.707-1.363-.707 1.504.656 1.558.082 2.086-.79.75.41.613.164 1.222ZM25.563 42.18c.515-.39-.11-.918.218-1.364.871-.836 3.922 2.5 4.469 3.309-1.254-.39-2.453-1.281-3.46-2.2.706 1.282 2.097 2.032 3.378 2.673-1.336-.336-2.645-.946-3.652-1.918.52.972 1.797 1.582 2.726 2.11-.465-.028-1.527-.778-1.746-.61.734.582 1.692 1 2.453 1.472-.953-.25-1.77-.804-2.672-1.222-.109-.028-.136-.14-.164-.25-.16-.973-1.277-.555-1.797-1.114a1.6 1.6 0 0 1 .247-.886Zm4.523 3.418c-.027.054-.082.027-.11.027.028 0 .055 0 .11-.027Zm-3.762-.141c-.87-.527-1.715-1.64-1.199-2.695-.082 1.054.492 2.027 1.254 2.695h-.055Zm5.285.781c-2.289.192-5.558-.031-6.21-2.808.542.304 1.335.136 1.554.86 1.414.972 3.16 2.167 4.985 1.694.19-.054.273-.304.054-.386-2.043-1.809-3.215-4.477-4.113-7.063-2.07-6.308-1.555-15.039 4.469-18.902l.109 1.418v.027c0 .277.082.559.137.809.027.11 0 .218-.055.332 0 .027-.027.027-.055.054-.765 1.668-1.828 3.282-1.992 5.172a14.441 14.441 0 0 1 2.047-4.308c-.355 1.14-1.555 3.918.652 3.668.22-.028.547-.082.493.25-.465 1.445-.957 2.976-.493 4.504.164.586.41 1.39 1.09 1.5.63-.028.492-.946.98-1.196.657-.25.247 1.14 1.31.89.706 0 .245 2.31 1.69 3.56.762.695 1.223.863 1.579.722a7.605 7.605 0 0 1-.953-.582c-1.336-.89-1.446-2.644-1.446-2.644-.109-.692-.218-1.387-1.062-1.446-.68-.218-.516-1.304-1.524-.636-.273.136-.492.859-.683 1.054-.192.196-.707-.722-.844-1.863-.137-1.137.465-2.973.465-2.973.105-.472.379-1-.082-1.39-.273-.11-.684-.11-.684-.11s-.082.082-.351-.14c-.192-.055-.438-.168-.465-.64-.027-.61.734-2.25.734-2.614 0-.36-.218-.555-.11-.75.083-.196.548-2.028.74-2.25 1.062-3.254 3.812-5.84 6.976-6.95-.055-.027-.137 0-.219.028h-.11c.055-.027.083 0 .11 0 .082-.195.488-.223.652-.39-.515-.083-1.144.39-1.687.527.297-.414.953-.582 1.36-.887-1.305-.168-1.989 1.195-2.997 1.805.492-.973 1.555-1.696 2.563-2.082-1.282-.032-2.618 1.164-3.16 2.359-.137.473-.602.668-.958.976.657-1.503 1.883-2.808 3.329-3.53-1.801.445-3.301 2.14-3.871 3.89-.055.277-.083.305-.329.527.465-1.418 1.172-2.918 2.426-3.781-1.715.754-2.617 2.895-3.105 4.645-.028-.555.164-1.114.273-1.641-.656.777-.437 1.89-.902 2.695-.082-.777.246-1.75.52-2.527-.41.223-.602 1.027-.735 1.527-.219.695.055 1.445-.246 2.086-.192-.668.027-1.473.082-2.14-.793 1.113-.137 2.667-.629 3.863-.137-1.39.055-5.336 1.555-5.781 1.09-.223 1.742-2.532 2.968-3.2 1.09-1.027 4.118-1.554 4.063.559a2.19 2.19 0 0 1 .351-.223 1.3 1.3 0 0 1 .274-.14h-.3c.245-.387 1.144-.36 1.581-.555 1.528-.418 2.942-1.14 4.278-1.973 3.296-2.418 7.93-4.699 11.69-1.89-1.253.082-2.07.5-2.616 1.082-.219-.11-.625-.332-1.254-.473a3.02 3.02 0 0 0-.57-.11c-.872-.14-2.016-.113-3.38.305a9.866 9.866 0 0 0-1.988.864 40.84 40.84 0 0 0-3.191 2c-.461.304-.816.586-1.117.836-.844.664-1.145 1-1.145 1s.492-.364 1.309-.891a34.558 34.558 0 0 1 3.379-1.918c.11-.055.191-.082.3-.14-.109.058-.218.113-.328.167a27.696 27.696 0 0 0-2.914 1.809c-.41.277-.765.527-1.035.75-.766.582-1.035.918-1.035.918s.46-.336 1.227-.809c.68-.414 1.605-.945 2.667-1.445-.98.531-1.769 1.031-2.343 1.445-.38.25-.68.473-.926.668-.68.528-.926.836-.926.836s.41-.308 1.145-.754a24.848 24.848 0 0 1 2.07-1.054c-.789.418-1.418.836-1.906 1.168a7.983 7.983 0 0 0-.82.613c-.598.473-.817.75-.817.75s.383-.277 1.09-.668c.465-.25 1.062-.555 1.773-.836-.738.363-1.308.723-1.746 1.031-.3.195-.515.36-.707.528-.52.418-.683.668-.683.668s.355-.25 1.011-.586c.625-.332 1.551-.723 2.641-1.028.191-.054.41-.113.629-.168.871-.222 1.742-.36 2.558-.386a6.549 6.549 0 0 1 2.891.414s-.383-.387-1.117-.696c-.137-.054-.3-.11-.465-.164-.734-.222-1.687-.363-2.914-.195-.3.027-.602.082-.871.168.16-.059.351-.113.543-.168.926-.277 1.879-.5 2.781-.586.488-.055.98-.082 1.442-.027a6.586 6.586 0 0 1 1.718.363s-.41-.363-1.199-.668c-.164-.055-.328-.11-.492-.168-.762-.223-1.77-.305-3.024-.082-.246.055-.492.082-.707.168.055-.027.082-.027.137-.055.98-.363 2.016-.64 2.969-.781.543-.082 1.062-.137 1.55-.11.766.028 1.391.165 1.856.333 0 0-.437-.36-1.281-.637a2.594 2.594 0 0 0-.52-.14c-.789-.196-1.851-.223-3.16.054-.273.055-.515.14-.789.195 1.035-.418 2.098-.75 3.106-.945a9.09 9.09 0 0 1 1.691-.168c.762 0 1.469.14 2.016.309 0 0-.465-.364-1.336-.614-.164-.054-.356-.082-.543-.14-.848-.164-1.938-.164-3.274.168-.433.113-.843.25-1.277.445.055-.027.133-.055.187-.082 1.09-.473 2.262-.89 3.38-1.168.6-.14 1.226-.223 1.8-.25a6.05 6.05 0 0 1 1.934.223c-1.907 2.054-.735 6.199-3.84 6.949-.957.137-2.184.055-2.754.918a3.999 3.999 0 0 0-.68-.473c-.136-.058-.273-.14-.41-.195-.652-.277-1.527-.5-2.672-.445-.652.027-1.226.109-1.687.277-.657.25-1.117.527-1.5.75-.219.14-.383.277-.489.39-.355.305-.464.5-.464.5s.3-.195.87-.445c.548-.222 1.31-.445 2.29-.582.164-.027.355-.058.547-.058a11.419 11.419 0 0 1 2.152-.028c.406.028.762.086 1.09.168.379.082.68.195.898.278-.054.085-.082.195-.136.304-.22 1.281-.735 3.2-2.399 2.586-1.55-.387-3.351-1.527-4.902-.723.27-.054.543-.109.87-.082-1.718.555-3.378 1.446-4.632 2.81.52-.864 1.5-1.532 2.29-2.2-.028-.055-.056-.027-.083 0-.273.168-.52.336-.789.504-.547.472-1.062.945-1.527 1.445-3.489 3.723-2.832 10.008 1.851 12.285 2.157 1.278 4.633 1 6.977.836-.11.25-.57.305-.817.414-.546.25-1.636-.332-1.851.418.055.223.027.332-.192.39-1.8.61-3.761 2.114-3.843 4.196-.328.613-.817 1.168-1.117 1.809-.22-.64-.083-1.418.328-2.032.082.06.136.114.218.141.137-.082.192-.195.164-.363-.218-1.973 1.934-4.559 4.332-4.25.165-.086-.082-.168-.164-.168-2.343-.473-4.824 1.805-4.605 4.254-.926.722-1.008 2.027-.629 3.058-1.117 2.418-.434 5.309 1.121 7.364-2.918.722-5.535-1.473-7.797-3.055.137-.113.356-.195.192-.39-.137.027-.246.167-.407.109 0-.055.055-.055.082-.082.215-.11.297-.582.028-.641-.11.363-.656.195-1.067.281Zm8.04 7.004c-7.794 5.863-21.282-1.75-8.012.582 1.281 0-1.305-.636-1.524-.75-.547-.332-1.308-.527-1.61-1.11-.651-2.558 4.196.47 3.544-.558-.79-.5-2.043-.972-1.852-2.168 0-.082.055-.136.164-.136.325-.141 1.934.886 1.77.332-.52-.168-2.344-1.473-1.117-1.75.761.136 1.336.777 2.043 1.109.273-.082-.57-.805-.57-1.11-.329-.917.515-.363.816 0 1.906 1.887 2.289 1.887.246.833.871 1.113 2.48 1.75 3.867 2.03-2.18.388-4.605.083-6.594-.89-.191-.027-.191.196-.054.278 1.91 1.722 4.797 1.972 7.195 1.472-2.535 1.168-5.668 1.086-8.203.278 1.5 1.976 6.32 1.222 8.449.445-3.055 1.781-6.977 2.64-10.465 1.809-.027.027-.055.054-.082.109 4.277 2.058 10.383-.277 13.817-3.25.164.082.296.191.46.305-.652.863-1.44 1.527-2.289 2.14Zm3.761-1.918c.653-.304 1.063.082 1.254.89-.383-.112-.98-.558-1.254-.89Zm8.367 1.168c-.41 3.223-3.515 7.977-5.941 4.309-.762-1.473-.41-3.754-1.145-5.367-1.336-2.114-3.488 1.918-3.953 3.113-.68 1.504-.953 3.2-1.36 4.781v.25h-.026v-.223c.242-2.64 2.367-10.449 5.586-9.03 1.171.886.843 2.527.953 3.808-.028 1.445.87 3.418 2.562 2.75 3.324-2.336 3.242-7.031 3.54-10.73 0-.669.027-1.364 0-2.028-.161-.336-.38-.695-.188-1.059.105-.277.351-.445.543-.636.3-.364-.356-.668-.543-.282-.383.473-.22 1.032-.246 1.586-.028.305.246.473.296.723.028.777-.132 1.613-.132 2.39-.11 1.31-.11 2.587-.383 3.919-1.336 1.14-3.106 2.058-4.906 1.808.574-.5.355-.472-.137-.527.027.332.027.555.027.555h-.215s-.027-.696-.218-1.332c-.028-.032-.028-.086-.055-.141-.219-.695-.711-1.168-1.773-1.14-.708.027-1.172.25-1.524.613-3.816-1.668-3.98-7.063-1.582-10.036.055.11.492.637.547.387-.926-.723.027-1.918.598-2.527 2.316-2.281 5.75-2.89 8.855-2.727-1.062-.441-2.344-.222-3.46-.136.737-1.086 4.714-2.114 5.804-1.532 0 0 .683.25 1.172.364.492.109.898.25.925.777.028.527-.214.5-.27.695-.054.196.083.473.083.473s-1.418 1.086-1.91 2.14c-.489 1.055-.871 2.56-1.2 2.891-.246.223-.542.305-.706.305.136.168.273.281.46.14.739-.222 1.094-1.777 1.583-2.668.843-2.03 2.535-3.39 4.55-4.113-.218-.308-.543-.586-.465-1.031.028.027.055.027.082.059.055.054.165 0 .165-.086.328-2.114.027-3.028-.899-4.168 2.535 1.472.328 4.03 1.61 5.003.269-.085-.22-.335-.22-.863.11 0 .028-.14.137-.195.082.195.164.39.38.473 0 .113.683.086.027.336-.028.054-.137.054-.137.136.355-.11.738-.222 1.117-.277 1.445-.168 3.192 1.363 2.48 2.89-.109-.054-.218-.082-.324-.136-.82-4.145-5.886-.864-7.222 1.277-1.2 1.5-1.61 3.39-1.61 5.281-.379 2.918-.925 5.836-1.332 8.758Zm-5.695.555c1.961.113 3.785-.418 5.23-1.695-.218 4.03-5.015 8.98-5.23 1.695Zm8.664-2.25c-.082.027-.11.027-.137.027 0 0 0-.086.246-.277 0 .055.083.11.137.11-.082.081-.164.109-.246.14Zm3.816-5.895c-.492.555-.984 1.168-1.554 1.641.383-1.531.625-3.031.652-4.586.356.305 1.145 2.527.903 2.945Zm-.683 9.73c1.746-3.835 1.96-9.898-.383-13.429-.133.031-.242.168-.215.309.215 1.195.028 2.445-.164 3.64-.3 1.336-.926 4.782-2.07 5.364 1.578-1.973 1.851-4.723 1.742-7.172-.11-.332.082-2.082-.516-1.61a5.609 5.609 0 0 0-1.363 1.946c-.191.332-.273 1.277.3.75-.108-.028-.19.082-.273 0 .11-.918.762-1.75 1.415-2.364.41 1.614.3 3.336 0 4.977-.516.75-1.47 1.168-2.235 1.64.383-.695 1.254-1.25 1.664-2.003-1.254.918-2.207 2.226-3.351 3.336.543-4.809 1.554-9.672 6.484-12.118 1.035-.586 3.844-1.336 3.707.637-1.418-.668-3.734.695-4.687 1.836-.22.25.164.39.246.613 1.226 2.082 1.336 4.614 1.336 6.977-.11 2.25-.438 4.727-1.637 6.672Zm6.133-11.343c-1.2-.387-1.09-1.75-1.555-2.723.68.75 1.309 1.696 1.637 2.723 0 .027-.028.027-.082 0Zm.515 5.504c.953-3.281-.324-6.809-2.453-9.367l.164-.418c-.27-.028-.406.336-.652.39-.137.137.164.223.191.36 1.606 3.394 2.043 7.867.215 11.262-.078.027-.133.027-.187-.032 1.77-3.445 1.172-7.894-.492-11.285.41-.582-.653.027-.844-.277-.465-.028-1.637.777-1.664 1.304.547-.527 1.308-1.222 2.152-.972.164.195.273.445.41.695-.465 1.223-1.117 2.45-1.96 3.422-.274-1.195-.575-2.363-1.2-3.45 1.035-1.081 2.48-1.75 3.95-1.917 2.124 1.613 2.698 4.644 2.972 7.199 0 1.004.11 2.281-.602 3.086Zm.493-5.059c-.055-.277-.137-.554-.192-.832 1.145.473 2.207-.472 2.86-1.39 1.117-1.64.464-3.922-.954-5.117-2.289-1.833-6.511-3.168-5.722-6.922.218.5.191 1.445.218 1.363 1.5 4.504 8.176 3.863 7.415 9.562-.165 1.723-1.856 3.559-3.625 3.336Zm0 0"/></g><path fill="#2b291f" d="M47.145 42.371c.027.086.027.168.054.25.082.336.297.531.57.668.247.113.493.086.762-.055.356-.168.602-.445.711-.836.028-.082.055-.136.082-.218h.055c.242.054.46-.032.707-.086a.561.561 0 0 0 .3-.223c.11-.11.165-.25.11-.445-.055.031-.082.031-.11.058-.109.082-.218.082-.327.082a.507.507 0 0 1-.192-.054c-.164-.055-.324-.14-.488-.196-.547-.222-1.09-.222-1.664-.082-.488.137-.79.473-.953.946-.055.136-.055.277-.028.472.137-.086.22-.28.41-.28Zm.515-.164c.082 0 .137.027.192.055.054.054.109.11.109.168v.11c.027.167.055.194.273.167.055-.14.11-.277.11-.418 0-.055.027-.082.054-.11.055-.03.106-.03.16.028.055.055.083.137.083.25-.028.195-.188.445-.461.5a.404.404 0 0 1-.356-.086.733.733 0 0 1-.328-.555c0-.082.027-.109.164-.109ZM52.84 42.957c-.055 0-.082.027-.11.055-.027.11-.109.168-.136.277-.055.086-.082.168-.137.25-.027.086-.055.14 0 .223.027.086.055.168.055.25 0 .363 0 .75-.028 1.113-.027.195-.027.387-.054.555a27.787 27.787 0 0 1-.246 2.113l-.246 1.586c-.055.36-.106.723-.16 1.055l-.083.668c-.027.222-.027.418-.082.64a13.79 13.79 0 0 1-.847 2.805c-.243.586-.516 1.168-.899 1.668-.054.058-.082.14-.137.195-.296.305-.625.586-1.007.778-.461.222-.953.335-1.496.25-.493-.083-.903-.305-1.2-.75-.027-.055-.082-.11-.136-.165-.028.028-.028.055-.028.055 0 .027 0 .055.028.082.136.363.406.64.707.863.136.11.3.164.492.223.46.11.898.055 1.336-.14a3.931 3.931 0 0 0 1.277-.946c.328-.36.602-.805.82-1.25.543-1.027.899-2.113 1.118-3.254.136-.695.27-1.418.379-2.113.054-.305.109-.637.164-.941.054-.309.109-.614.164-.946.082-.472.164-.945.218-1.418.082-.531.137-1.058.192-1.586.027-.109.027-.25.027-.363v-.36c.055-.363.082-.75.137-1.113v-.277c0-.027-.027-.082-.082-.082ZM55.047 37.867c.898-1.054 1.96-1.918 3.215-2.472.027-.028.082-.028.082-.083-.082 0-.164.028-.219.028a5.98 5.98 0 0 0-1.988 1.055 8.808 8.808 0 0 0-1.692 1.808 9.472 9.472 0 0 0-1.363 2.723c-.133.445-.242.918-.242 1.39v.168c0 .028.027.055.082.055.027 0 .05-.027.078-.055.027-.027 0-.086 0-.113v-.25c.082-.75.3-1.473.629-2.14a8.944 8.944 0 0 1 1.418-2.114ZM51.422 38.758c.027 0 .055 0 .082-.028.055-.054.082-.136.137-.195a.707.707 0 0 1 .242-.222c.054-.028.137.027.137.113 0 .027-.028.054-.028.11-.027.085-.027.14.055.194a.168.168 0 0 0 .191.028.368.368 0 0 0 .192-.164c.027-.114.054-.223.082-.282v-.164c-.055-.25-.192-.472-.547-.336a.559.559 0 0 0-.352.31c-.11.163-.164.386-.164.581-.082 0-.054.027-.027.055ZM50.277 44.066c-.683.418-1.445.532-1.28.668.163.141.76-.195.624.055-.133.254-1.387.531-1.25.695.133.168.98.114 1.008.168.027.055-.602.391-.602.391l.465.25s.137.723.301.668c.16-.059.27-.723.352-.977.082-.25.164-.691.164-.582 0 .11.054.555.136.582.082.032.192-.054.465-.664.242-.64.38-1.504.324-2.254.028-.054-.027.586-.707 1ZM42.129 46.82c0-.054-.027-.082-.027-.14 0 .03 0 .086.027.14ZM41.883 48.238a.205.205 0 0 1-.055-.113c-.027 0 0 .059.055.113Zm0 0"/><path fill="#173a56" d="M96.676 37.514h8.25v4.859H90.38V16.529h6.297ZM127.293 31.764c0 .593-.04 1.21-.11 1.843h-14.25c.102 1.282.516 2.262 1.235 2.938.726.668 1.617 1 2.672 1 1.57 0 2.664-.66 3.28-1.985h6.704a9.236 9.236 0 0 1-1.86 3.657c-.898 1.074-2.023 1.918-3.374 2.53-1.344.618-2.856.923-4.532.923-2.011 0-3.804-.426-5.375-1.281-1.562-.864-2.789-2.094-3.671-3.688-.887-1.594-1.329-3.457-1.329-5.594 0-2.133.43-4 1.297-5.593.875-1.602 2.098-2.832 3.672-3.688 1.57-.852 3.375-1.281 5.406-1.281 1.989 0 3.754.418 5.297 1.25a8.93 8.93 0 0 1 3.625 3.578c.875 1.543 1.313 3.34 1.313 5.39Zm-6.438-1.657c0-1.07-.37-1.925-1.11-2.562-.73-.645-1.648-.969-2.75-.969-1.062 0-1.96.309-2.687.922-.718.617-1.164 1.484-1.328 2.61ZM136.9 15.139v27.234h-6.297V15.139ZM160.819 31.764c0 .593-.04 1.21-.11 1.843h-14.25c.102 1.282.516 2.262 1.235 2.938.726.668 1.617 1 2.671 1 1.57 0 2.664-.66 3.282-1.985h6.703a9.236 9.236 0 0 1-1.86 3.657c-.898 1.074-2.023 1.918-3.375 2.53-1.343.618-2.855.923-4.53.923-2.013 0-3.806-.426-5.376-1.281-1.562-.864-2.789-2.094-3.672-3.688-.886-1.594-1.328-3.457-1.328-5.594 0-2.133.43-4 1.297-5.593.875-1.602 2.098-2.832 3.672-3.688 1.57-.852 3.375-1.281 5.406-1.281 1.988 0 3.754.418 5.297 1.25a8.93 8.93 0 0 1 3.625 3.578c.875 1.543 1.313 3.34 1.313 5.39Zm-6.438-1.657c0-1.07-.371-1.925-1.11-2.562-.73-.645-1.648-.969-2.75-.969-1.062 0-1.96.309-2.687.922-.719.617-1.164 1.484-1.328 2.61ZM201.196 16.53v25.843H194.9v-15.5l-5.781 15.5h-5.078l-5.813-15.531v15.53h-6.297V16.53h7.438l7.25 17.89 7.187-17.89ZM215.058 42.67c-2.012 0-3.82-.426-5.422-1.281a9.548 9.548 0 0 1-3.797-3.688c-.918-1.594-1.375-3.457-1.375-5.594 0-2.113.46-3.972 1.39-5.578.938-1.613 2.211-2.847 3.829-3.703 1.625-.852 3.441-1.281 5.453-1.281 2.007 0 3.82.43 5.437 1.281 1.625.856 2.899 2.09 3.828 3.703.938 1.606 1.407 3.465 1.407 5.578 0 2.106-.477 3.965-1.422 5.578a9.568 9.568 0 0 1-3.86 3.704c-1.625.855-3.449 1.28-5.468 1.28Zm0-5.453c1.207 0 2.234-.438 3.078-1.313.851-.883 1.28-2.148 1.28-3.797 0-1.644-.413-2.91-1.233-3.797-.825-.882-1.84-1.328-3.047-1.328-1.23 0-2.25.438-3.063 1.313-.805.867-1.203 2.137-1.203 3.812 0 1.649.395 2.914 1.188 3.797.8.875 1.8 1.313 3 1.313ZM241.672 21.607c2.406 0 4.328.782 5.765 2.344 1.438 1.555 2.157 3.695 2.157 6.422v12h-6.266V31.217c0-1.375-.36-2.442-1.078-3.203-.711-.758-1.664-1.141-2.86-1.141-1.199 0-2.156.383-2.875 1.14-.71.762-1.062 1.829-1.062 3.204v11.156h-6.297V21.826h6.297v2.734c.633-.906 1.492-1.625 2.578-2.156 1.082-.531 2.297-.797 3.64-.797ZM257.132 19.701c-1.106 0-2.012-.32-2.719-.969-.7-.656-1.047-1.46-1.047-2.422 0-.976.348-1.789 1.047-2.437.707-.656 1.613-.984 2.719-.984 1.07 0 1.957.328 2.656.984.707.648 1.063 1.46 1.063 2.437 0 .961-.356 1.766-1.063 2.422-.7.649-1.586.969-2.656.969Zm3.125 2.125v20.547h-6.297V21.826ZM276.27 37.03v5.343h-3.204c-2.281 0-4.062-.555-5.343-1.672-1.274-1.113-1.907-2.937-1.907-5.469V27.06h-2.515v-5.234h2.515v-5h6.297v5h4.11v5.234h-4.11v8.25c0 .618.145 1.059.438 1.329.289.261.78.39 1.468.39ZM289.101 42.67c-2.011 0-3.82-.426-5.422-1.281a9.548 9.548 0 0 1-3.797-3.688c-.917-1.594-1.375-3.457-1.375-5.594 0-2.113.461-3.972 1.391-5.578.938-1.613 2.211-2.847 3.828-3.703 1.625-.852 3.442-1.281 5.453-1.281 2.008 0 3.82.43 5.438 1.281 1.625.856 2.898 2.09 3.828 3.703.937 1.606 1.406 3.465 1.406 5.578 0 2.106-.476 3.965-1.422 5.578a9.568 9.568 0 0 1-3.859 3.704c-1.625.855-3.45 1.28-5.469 1.28Zm0-5.453c1.207 0 2.235-.438 3.078-1.313.852-.883 1.282-2.148 1.282-3.797 0-1.644-.414-2.91-1.235-3.797-.824-.882-1.84-1.328-3.047-1.328-1.23 0-2.25.438-3.062 1.313-.805.867-1.203 2.137-1.203 3.812 0 1.649.394 2.914 1.187 3.797.801.875 1.801 1.313 3 1.313ZM309.497 25.248a8.306 8.306 0 0 1 2.765-2.656c1.102-.657 2.328-.985 3.672-.985v6.672h-1.719c-1.574 0-2.757.34-3.547 1.016-.78.668-1.171 1.851-1.171 3.547v9.53H303.2V21.827h6.297ZM322.122 19.701c-1.105 0-2.011-.32-2.718-.969-.7-.656-1.047-1.46-1.047-2.422 0-.976.348-1.789 1.047-2.437.707-.656 1.613-.984 2.718-.984 1.07 0 1.958.328 2.657.984.707.648 1.062 1.46 1.062 2.437 0 .961-.355 1.766-1.062 2.422-.7.649-1.586.969-2.657.969Zm3.125 2.125v20.547h-6.296V21.826ZM342.323 21.607c2.406 0 4.328.782 5.765 2.344 1.438 1.555 2.156 3.695 2.156 6.422v12h-6.265V31.217c0-1.375-.36-2.442-1.078-3.203-.711-.758-1.664-1.141-2.86-1.141-1.199 0-2.156.383-2.875 1.14-.71.762-1.062 1.829-1.062 3.204v11.156h-6.297V21.826h6.297v2.734c.633-.906 1.492-1.625 2.578-2.156 1.082-.531 2.297-.797 3.64-.797ZM362.423 21.545c1.446 0 2.711.297 3.797.89 1.094.586 1.938 1.352 2.531 2.297v-2.906h6.297v20.516c0 1.882-.375 3.593-1.125 5.125-.75 1.539-1.898 2.765-3.437 3.672-1.531.906-3.438 1.359-5.719 1.359-3.043 0-5.512-.719-7.406-2.156-1.887-1.438-2.965-3.383-3.235-5.828h6.235c.187.78.648 1.394 1.39 1.843.739.457 1.645.688 2.72.688 1.3 0 2.335-.375 3.109-1.125.78-.75 1.171-1.946 1.171-3.578v-2.907c-.617.95-1.464 1.727-2.546 2.329-1.075.605-2.336.906-3.782.906-1.699 0-3.234-.43-4.61-1.297-1.374-.875-2.464-2.113-3.265-3.719-.793-1.613-1.187-3.476-1.187-5.594 0-2.101.394-3.953 1.187-5.546.801-1.602 1.89-2.832 3.266-3.688 1.375-.852 2.91-1.281 4.61-1.281Zm6.328 10.562c0-1.57-.437-2.812-1.312-3.718-.867-.907-1.93-1.36-3.188-1.36-1.25 0-2.312.45-3.187 1.344-.867.898-1.297 2.125-1.297 3.687 0 1.575.43 2.825 1.297 3.75.875.918 1.937 1.375 3.187 1.375 1.258 0 2.32-.453 3.188-1.359.875-.914 1.312-2.156 1.312-3.719Zm0 0"/></svg>